/* XPM */
static char *_0602_09f8c2bd767fd176241ba9ca1a4578bc0807617017c002a2372e4065ed84502f[] = {
/* columns rows colors chars-per-pixel */
"64 64 58 1 ",
"  c #544E4C",
". c #55514E",
"X c #58524F",
"o c #575553",
"O c #5A5653",
"+ c #5D5956",
"@ c #595758",
"# c #5D5C5A",
"$ c #605A56",
"% c #615E5C",
"& c #64615E",
"* c #656362",
"= c #696664",
"- c #676865",
"; c #6B6966",
": c #6D6C6B",
"> c #706E6D",
", c #72716E",
"< c #6F6E70",
"1 c #716F70",
"2 c #757473",
"3 c #787675",
"4 c #777876",
"5 c #7A7976",
"6 c #777778",
"7 c #787778",
"8 c #777978",
"9 c #7D7C7C",
"0 c #807F7E",
"q c #7F807F",
"w c #81807F",
"e c #7F7F80",
"r c #817F80",
"t c #7E8082",
"y c #848383",
"u c #888686",
"i c #878887",
"p c #898887",
"a c #878788",
"s c #898788",
"d c #878888",
"f c #8B8B8B",
"g c #908F8E",
"h c #91908E",
"j c #8F8F90",
"k c #918F90",
"l c #939292",
"z c #999797",
"x c #999896",
"c c #969699",
"v c #979898",
"b c #9B9B9A",
"n c #A09F9D",
"m c #A2A19F",
"M c #A4A3A2",
"N c #A9A8A7",
"B c #ACABAB",
"V c #B0AFAD",
/* pixels */
"9yyfftayy9wwpppwyay5890w000590pul9w99wwwwppuupry:r2ryy0990pucttt",
"5502:430uywphuyuuir127,9w5505305:294ypufpp0ugsy2:r129599739w:,t:",
"59959w9333>&%%&&*:11272,;>&=59999qq530,=%&&%&;>>1322>>=&,59950w0",
"ffffffffyufp3nxhllzkllkcxl2lfifffdfhwupp0glhgxbgkbkkblr0xfpffaal",
"fyiuyyyywiiu=bpfffsrryy00y8mfwyuuuwwwppp2fgfagfyruur0y0gciyyiyyy",
"iyyyyy0ry9yy&bpugssuyufuwy5fiwiiyyywwwww:ufugfiarysr0y9yfyiiiyyy",
"iiuuyyyyyryy*bffggsyryaupu,yyyiiuyuwupp0>agfgguyryayus50uyyiiyya",
"wypfuyiiyyfy%xflggpyyyyuu0:y9yifpppppuuw:afgkggyyyruyw,9yyupuyuf",
">2333,,2:,9,=0552,:=;>>>:&=5:,573,,,2>2,;35522>=;;=>:=*2>>3532>>",
"00w95>2790009y5323>*>32233yyw4y952,59ry09y03525%>332370a00rr93:5",
"gfjfiyffgffsupuyaa99fauruuffhpjfiiihfkffufuyaaa<gsfsuyafgffffiyl",
"wyyiy7uaiurrwuww9r99i0099riyyyyyyqyfyiayyuyyrry1gyurr0yauuyiyw2c",
"yyyyar9iiywiy97u7y76095qyyy90yyyia9aiyiyyr9y90y:05rr9yiyryyiif6f",
"ryiyirafyuiur07y7y2;wwwyyyiy0iryyiylyryyr099yrr#y9ryy99yyyryya6l",
"5w0003sf09y9y99wqw,;wyqw79y979yye99ly9wwy955yy0@yu0y999009yy0y1b",
"++#+%%%%+&$+X++O&&+&:*##OOO.++$++%%%O*&+OX++%*++2;%%+O+OOO+++++*",
"bbmMNNVMbbvh-mMMmnxxxxhhbnw:xMnnBMBNnbbx5fMMmMczxbhgbnp,pmbbNNNV",
"ffafauiiqyuy2Ndjfdy909www92ifuykffayyyuy7blffff99000w050updffhyi",
"9uiiryyfuiuf*liyfyqqw0ww9y7:7ffyyffiyyua2ufyfyiyw0009w723yfpiiif",
"fyyyir0rtyuq#bydiyw935003i2<fryyfrr990ri:diaaay005wu9y92yyyifuty",
"wwqyauryyyiq+bywqywywwu0iy229y9yyyy9yui0-ifayfy900pu0u925wyifuy0",
"32,22,>3848,#fq2422,355372;:,92:22233521*9y3922,555355:*,222,,:2",
"53:2,*+;,2228q22,:,,:;:::*+:90:,2:+*222239922<>>,:;>>=#*28,,2,#@",
"xhhvv92ufjjjjjllhhhfpyppfr1fllllbd:yjllllllllllfppffpi3ylcjlvl:9",
"wyqyy8eidi9yyyyfdffy9y79t92f99ytyt6iaiyyiryiifpity9tty7yu99yi9<d",
"yyyyy62tiy9yy9yiutdy9tq9iy2eqy9tty29yryeiy9eif7iy79yyt99ywwiyy:t",
"qyqqy<<9y9eyuwyywqyqq9990y2ywyytq9;eyye9yry9yy9y959wwq27qwyyyi*7",
"89wqe;:9iyyyiy0rwyq99972291i7yw994*77y9ryy97r99244442969q8qwyt%2",
"+$&%%#%**%%$@OOOO$*% X@Oo. oO*#+@=#*&%+%++OoOO*%  O+o  .+$%&O;@*",
"fy99f7ra5iyr0rffyfy9:299eyyify97ra2greaa9eyjrjia;2999yayfayttl-l",
"t9ytifc90usruyyiddt7ay2e797e996yifla9afiyyyfaay96l<989ey9e9eeajl",
"799ff7i290yy3y00y9y96269iy7i9796l7rr7uayy9yyf9t9<9:9999ty992c9ef",
"9p9y9303w3wwy90u9ye29y90ii99rai0i7900y999wwp9yu2:a27wp979yyii27f",
"47whu900ywuw0y9wyfa32y0wy9t7209il9y79uaayy99dfyy:y9tyiiy799yc999",
",9y2:530wwwws00uuu9:9925327>:7u9:722wuypywwwypw>,w,95,23>,9w,,w:",
"fupfhhgyww93&;:::,91795999*2ffsufljfww92;;>:;>02292999:;yfppfhfx",
"yufpurysuffu2bclhggfrssspu>xfyfai0yuuupw2hljkggkyuupgy5pxiufu9yp",
"iwyiyyyuyuuu*baaffsyuyuy0y3cf9fyrr0wwuuu<fffffff0iir0w5plyiuuwwu",
"i00yyrruy0rs*bpufauyuyyi9y5faeuyyyryyryy:ffyfffuyyyyww5wayiyyiyp",
"yyyiuyryyuau#Mhhgaauyyyyry2yryufayy9yuuu<ajjlffyyyyruu00yyiyyppy",
"3yupuyyy0pu0+xhhlgs0yy90r9:y2yfpuyywypu9;wghkgg0yy99y9>399piyuuw",
"29ww0>>>>303,pw033>*=:>,2:>r3700y3:>,2332uuw511=*=>23>:575www0>2",
"wwyy09055uypwpw039>;305997ryyrry099979wywpuwr75*2037097yyyypw995",
"uppiyypgpswpwpyy0u90hfwy9ryyauaiywifiiyyupyysru1hfi0ywyyppyyyyyh",
"yyyiy7iuiy0yy9rre999u9909y00yyuiy9yjyyyywu0rr0r2f7y00y0ryqyyyy2l",
"yy9yf9yiwyuyryiy9r7200w0yyy99rywfa9fyyiywwp00r510990000ywytyif8f",
"yyywawyfffaaiyr09y1;009099yr9fuuii0fiuufyyyy000@yr990979wyyrif9j",
"07999,yf32059509rr=*90092300u3w5q22lw279w9000r0o09093290yyy9w9:l",
"#&=&*=*@O=;$o+&=:*%2r2==&&#.$&==&==%O%>&XO&&>=#=00;==&&oO#==&%=&",
"hfglkzbcnklf;Bfllljyyiuwug42gxfhkcbzbxff2xxcxclyyry0pf92ylfkxxbx",
"yypfyryiyyyy;Mfffiy939wuqy29ufpfaaaiyyit2xhffwy03000ww72yyfyfyyy",
"0iuuiyyy9yir&cfpyiwy0900wu4,9ffiyyyrryya:yfpfwyw050yww927ifu0yui",
"y0uywwuueyyy#bdayi000ww09y22yrpyuyyyyy9y:ffaiy9t00rr0y92wywyryrf",
"00wwyyuie9yr@vyti990yuw0yw223yw9yryytyy9*yfyyt9y0puyyu5,3wwyyyys",
"1,>23,,2228<&j9252,,53,33:#*>3>>2212286<-9y222>2333333%$:72:22>2",
"02,,2*%:269ttj9253,,>>:::;*703,,2:#=2229yfy25222>;>;>;&>97,,,2+%",
"ffyaf99yadfjffddffadiyyyyy7cifiify2yafffffiaffddiyuyty7flaiyup:i",
"9yeyy79yyyyyytyiyiayy9tq992i9ryyy96ryyyyytyyyidty9tyq959y9qyy9,y",
"99eyy72eae9ayyiyyyiy9eyqey299790y929yyetyyyyyyye99wqy97997qity:0",
"99ryr::9yeeyyeeyyyee9977992y9y09r6*9yy9eye9yye9y2979992597qy9y%2",
"950y9*;9qw9977752952959235:99w9w92%5909999532232255523>,550iu9O2",
";*****;2::;;;:*=*:>%X+==*&$=:;&=%-;,>::==;=*==2=+o*;&&%*;;&****:",
"y79wi9fiwiy89yufyfu7259yq9y9d79eyyef0r009yyfyfiy:929tyyyy07y9f2c",
"qy9yiuf999u9yytuyyq2yt897y97779raafa9yyyyyyri0e82f2999r9079eaefl"
};
