/* XPM */
static char *_329_0ea176b619ec8dee804128ea8b7d34f2bc1d892fe7b0bdc37f9da05d85b8adc4[] = {
/* columns rows colors chars-per-pixel */
"64 64 253 2 ",
"   c #07060B",
".  c #170909",
"X  c #1F110F",
"o  c #020A15",
"O  c #080A15",
"+  c #130D13",
"@  c #0A121D",
"#  c #14141B",
"$  c #191519",
"%  c #270907",
"&  c #360B06",
"*  c #2C140D",
"=  c #37130A",
"-  c #251718",
";  c #371915",
":  c #3A221C",
">  c #0A1623",
",  c #181B24",
"<  c #241D22",
"1  c #1B222C",
"2  c #192836",
"3  c #1D303E",
"4  c #282329",
"5  c #37282B",
"6  c #2A2B34",
"7  c #352B31",
"8  c #25313D",
"9  c #38343A",
"0  c #470C04",
"q  c #481709",
"w  c #581708",
"e  c #501A13",
"r  c #681A07",
"t  c #761F0C",
"y  c #58280F",
"u  c #47251A",
"i  c #6B2208",
"p  c #782509",
"a  c #743217",
"s  c #522F2B",
"d  c #4B332A",
"f  c #4A3938",
"g  c #543935",
"h  c #69392D",
"j  c #45403B",
"k  c #5A433C",
"l  c #704A34",
"z  c #1B2F42",
"x  c #273646",
"c  c #353A45",
"v  c #2B3950",
"b  c #483D43",
"n  c #324754",
"m  c #3A4857",
"M  c #395966",
"N  c #33536C",
"B  c #3D6372",
"V  c #484449",
"C  c #574847",
"Z  c #484B56",
"A  c #574E53",
"S  c #48535C",
"D  c #585558",
"F  c #6C514B",
"G  c #655856",
"H  c #756256",
"J  c #4E546B",
"K  c #485A68",
"L  c #575B64",
"P  c #665A64",
"I  c #506571",
"U  c #576977",
"Y  c #66656A",
"T  c #776A69",
"R  c #676A73",
"E  c #717175",
"W  c #78777A",
"Q  c #872908",
"!  c #88280F",
"~  c #902E0A",
"^  c #993608",
"/  c #AC3406",
"(  c #A53806",
")  c #934B18",
"_  c #A94407",
"`  c #B74805",
"'  c #B95408",
"]  c #AF5113",
"[  c #B7670E",
"{  c #8D522F",
"}  c #A8592D",
"|  c #966D2A",
" . c #B26D34",
".. c #C34D06",
"X. c #C85605",
"o. c #CA6D0F",
"O. c #D56607",
"+. c #DA7507",
"@. c #C05F21",
"#. c #C57733",
"$. c #8C5B46",
"%. c #966951",
"&. c #B0744D",
"*. c #A66D55",
"=. c #A97658",
"-. c #947468",
";. c #867978",
":. c #C47D4E",
">. c #AD8B31",
",. c #D88F14",
"<. c #E4940F",
"1. c #D7A916",
"2. c #E8B111",
"3. c #D2932F",
"4. c #E39B2B",
"5. c #D9AC31",
"6. c #E6B12C",
"7. c #EDCE12",
"8. c #F1E20F",
"9. c #EBCF2D",
"0. c #B18657",
"q. c #AC9F66",
"w. c #B28D71",
"e. c #D29451",
"r. c #DAA458",
"t. c #D5B251",
"y. c #E3AC54",
"u. c #C99A6B",
"i. c #D8A868",
"p. c #D0AB74",
"a. c #E3B668",
"s. c #DBC359",
"d. c #EAD351",
"f. c #EEE34D",
"g. c #D4C86C",
"h. c #E9CC6D",
"j. c #EBD768",
"k. c #E8D876",
"l. c #EFE772",
"z. c #386689",
"x. c #2C6C97",
"c. c #376D98",
"v. c #2E719B",
"b. c #35729D",
"n. c #2F75A0",
"m. c #3476A2",
"M. c #367AA5",
"N. c #387AA7",
"B. c #397CA6",
"V. c #3A7CAA",
"C. c #3C7EB2",
"Z. c #465F80",
"A. c #547489",
"S. c #44749A",
"D. c #677A8B",
"F. c #7A7C83",
"G. c #457BA6",
"H. c #4C7BA5",
"J. c #527EA7",
"K. c #847E80",
"L. c #3780AA",
"P. c #3B81AD",
"I. c #3E83B4",
"U. c #758690",
"Y. c #4782AC",
"T. c #5482AC",
"R. c #4284B5",
"E. c #458ABC",
"W. c #4988B8",
"Q. c #5386B3",
"!. c #5388B6",
"~. c #5A8AB7",
"^. c #5C8AB4",
"/. c #538BBB",
"(. c #5591BF",
"). c #6A91A3",
"_. c #7290A8",
"`. c #638BB5",
"'. c #648DB8",
"]. c #6A92BC",
"[. c #7498BD",
"{. c #4B8EC1",
"}. c #548EC1",
"|. c #4E91C2",
" X c #5493C3",
".X c #5B94C3",
"XX c #5A96C9",
"oX c #6699C7",
"OX c #749BC3",
"+X c #7A9DC3",
"@X c #73A4CE",
"#X c #7AA3CB",
"$X c #888689",
"%X c #8F8D90",
"&X c #969699",
"*X c #A69592",
"=X c #B4A78E",
"-X c #A7A49A",
";X c #8797A6",
":X c #999CA3",
">X c #8B9CB2",
",X c #A39CA2",
"<X c #98A2AA",
"1X c #A8A6A9",
"2X c #A9AEB3",
"3X c #B1AEB0",
"4X c #B6B7BA",
"5X c #CEB18D",
"6X c #C8B4AA",
"7X c #C6BAB9",
"8X c #B6C6B0",
"9X c #D4CC90",
"0X c #E8D68C",
"qX c #EFE690",
"wX c #ECE498",
"eX c #CFCEB2",
"rX c #E6D8AE",
"tX c #EEE8AD",
"yX c #F1EBB7",
"uX c #87A6CB",
"iX c #90AECD",
"pX c #98B2CC",
"aX c #89ACD1",
"sX c #97B5D4",
"dX c #A6B7C8",
"fX c #B9BCC4",
"gX c #A5BAD3",
"hX c #C3BCC1",
"jX c #BBC4C7",
"kX c #B1C7D4",
"lX c #C6C7C9",
"zX c #CAD3C9",
"xX c #D4D2CD",
"cX c #C6CDD3",
"vX c #CACDD2",
"bX c #CDD3D7",
"nX c #D5D7D9",
"mX c #D5D9DD",
"MX c #F1ECC7",
"NX c #E2E0D0",
"BX c #ECEBD1",
"VX c #C7D4E3",
"CX c #D5DCE3",
"ZX c #DADEE2",
"AX c #DDE1E5",
"SX c #DEE4E8",
"DX c #E2E6EA",
"FX c #E5E8E9",
"GX c #E5EAED",
"HX c #F2F1E8",
"JX c #E6EBF0",
"KX c #EAEEF1",
"LX c #ECF1F4",
/* pixels */
"x.x.x.x.x.x.x.x.v.v.v.b.M.b.B.S.Y.S.L.b.L.L.B.B.B.B.B.M.L.L.Y.b.M.L.L.L.L.M.L.B.b.z z.Y.H.Y.G.G.G.G.B.m.S.G.S.S.S.c.c.c.x.x.x.x.",
"x.x.x.x.x.x.v.v.v.v.v.m.m.m.M.B.b.G.L.B.b.L.B.B.L.L.Y.[.pXbXbXkX[.Y.L.L.L.M.L.L.B.n m.Y.Y.G.J.G.G.Y.G.G.m.G.G.S.H.G.S.c.c.c.c.x.",
"x.x.x.x.x.v.v.v.v.n.n.n.b.m.M.B.B.L.L.L.L.L.L.L.P.^._.3XAXSXkX>X_._.).L.L.L.L.L.B.N M.Y.Y.G.Y.G.G.J.H.G.G.G.G.H.H.S.S.c.c.c.c.c.",
"x.x.x.x.v.v.n.m.n.m.m.m.M.M.B.L.B.L.P.L.P.L.P.Y.T.U A.8XAX4X_.D.U.U I R.P.I.P.L.B.N B.Y.Y.Y.G.Y.Q.Y.G.H.H.H.H.H.H.H.S.G.c.c.c.c.",
"x.x.v.v.v.b.m.m.m.m.m.B.B.B.L.B.L.P.P.P.I.P.R.S.I R U.U.<X;XD.U I B n B P.P.I.I.v.v V.Y.G.E.J.J.Q.Y.G.J.W.J.J.J.H.H.H.G.c.c.c.c.",
"v.v.v.v.b.m.m.m.m.m.M.B.L.L.P.P.L.I.P.I.I.R.A.J n 8 m U.D.U K U U U n x c.R.I.R.N z H.W.E.J.}.~.!.Q.J.!.J.Q./.J.J.H.H.H.G.G.H.G.",
"v.v.v.m.m.m.m.m.B.B.V.P.V.P.P.P.I.I.I.I.I.B < + . - 4 R U U U U M n 3 3 N I.W.I.N z Q.W.J.{.J./.Q.!.Q.J.~.Q.J.J.J.J.J.J.H.H.H.H.",
"m.m.m.m.m.m.m.N.N.N.V.V.P.V.I.I.I.R.I.I.P.V < $ 4 5 9 U U L K K m 8 2 2 n B E.E.v z !.W.W.{././.!.Q.Q.W.Q.J.!.J.J.'.J.J.H.H.H.H.",
"c.m.m.m.m.m.m.m.V.V.V.P.I.C.I.I.I.E.I.I.C.C c c c m Z K K L I K x 8 z 1 > v G.{.S x !.W.W.W.!.!.}.J.}.J.!.J.J.J.].'.J.~.J.J.J.J.",
"m.m.m.m.C.C.G.m.V.V.C.C.I.I.I.R.I.I.I.E.G.6 @ o o O o @ 6 m L S 2 8 v 8 > J I.Q.-.b S.!.W.W.W.!.W.{.J.!././.}.'.'.~.~.J.J.J.~.J.",
"m.m.m.C.m.C.C.C.C.C.C.C.I.I.R.I.C.E.I.{.N O @ @ 2 x x n K L U Z # 8 K Z z B .XJ.*.g J W.Q././.Q.!.!.}.!.~.!.J.}.`.'.~.~.oXJ.'.J.",
"m.C.m.m.C.m.C.C.C.C.C.C.C.I.R.R.E.E.I.I.S.2 2 1 c Z S L R U U L +   , 2 N Q./.J.*.s J }.W.}.Q./.J.}.J.~./././.'.Q.J.Q.J.J.J.OXJ.",
"m.c.C.C.G.C.C.C.C.C.C.R.R.C.{.I.E.I.{.E.W.J.1 > @ < , , 9 9 V < + 4 f $.{.{.{.D.*.s P Q.}.}./.Q.{.W.!.}.~.~.J.}.'.J.'.J.oXJ.J.OX",
"C.C.G.C.C.C.C.C.C.R.R.C.E.I.I.E.I.{.E.E.E.N O # + d : - X $ < $ # 4 %.;.!.{. XF.-.s J }.Q.}.}./.}.!.!.~.}.'..XJ.~.'.'.J.J.OX].J.",
"G.J.C.G.G.C.W.C.E.C.C.E.E.I.E.E.E.E.E.E.W.S.> 4 $ L - -   + O @ @ s -.w.`.{.{.N , < P }.}.}.}.}.}.~.}.}.J.uX'.'.'.'.J.].J.'.J.OX",
"/.`.Q.C.R.Q.Q.W.E.{.E.R.{.R.{.{.E.E.{.{.{.{.S.J S S.9 # + O   + # s %.-.;X{.}.m , 4 Z }.}.}.}.~.}.}.~.oX.XOX}.'.'.oX'.'.OX'.>XJ.",
"'.].].~.~.~.}././.W.{./.{.E.W.{.{.{.{.{.|.{.{.|.|.S., @ @   % * ; h F 4XkX.X|.I 1 5 m .X(.(.(.(.oX.X.X].oXOXOX].].[.OXoX].].]._.",
"OXOXOX].].}.}.}././.}.}.}.{.|.{./.|.|.|.|.|.|.|.|.Y.v S.A.$ * ; u h -.jXkX#X XI 1 7 c (.oX.XoX.XoX'.oXoXOX+X+XOXOXOXOXOX[.[.[.OX",
"uXuXuXuXOXoX}.}. X(. X X}.}. X}.|. X X(. X|. X X XXX.X}.S.c X * u g F.F.U.jXpXK Y Z n (.oX.X.XoXoXoXOXOXOX#X#X+XOX+XuX+XuX>X>XOX",
"uXuXuXuXaXuXoX'. XXX X X}. X X|. X X X XXX XXXXX XZ.I J.U c C u y s 1XE # :XGX4X1X2X;XoXoXoX@X@XOX+X#XuXaXOXuX+X+X[.OX>XOX].OXOX",
"uXiXsXsXaXaXuXoX XXXXX X X XXX XXX|.XXXXXXXX XT.S b R ;XD.c E C g g $XD R kXGXFX2X:X2XpX#X@X#XaXaXaXaXaXaXaX+X+XOXuXuXOXOXOX'.OX",
"gXgXgXgXsXaXaX@X@XXXXXXXXXXXXXXXXXXXXXXXXXoX$XV f F.>X>X>XU , Y h -.F.E bXLXKXKXAXU.:X1XSXVXaXaXsXsXgXsXsXuXuXuXuXOX].OXJ.oX'.OX",
"gXgXgXgXgXsXaXaX@X@X@XXXXXXXXXXXXXXXXXoXkXFX3X%XF.;X:X>X>X>X6 E =X4XW 2XLXLXLXLXGXSXU.%XcXGXSXsXsXsXsXsXiXaXuXuXuX].].OX].'.uXOX",
"gXpXgXgXgXaXaX#X@X@X@X@XXX@XXX@XXXXXXX#XSXxX&X:XbXbXcXmXCXAXbXE :XW :XLXLXLXLXLXLXLXzXE &XSXCXVXaXaXaXsXiXiXiXaXuXuXuXuXOXOXuX>X",
"gXgXgXgXsXsX#X@X@X@X@X@X@X@XaX@XsX@X@XCXCX1X;.DXKXKXLXLXLXLXLX4XR F.FXLXLXLXLXLXLXLXGX%XW CXnXCXgXiXiXpXsXiXuXuXuXuXhXdXpXdXfXfX",
">XuXiXuXiXsXaXsXsXsXsXkXsXsXkXkXkXaXsXSXhX;.*XLXKXKXKXLXKXKXKXvXR E LXKXKXKXLXLXLXKXGX:XD 2XcXCXgXpX3X5X3XiXsXgXZXNXMXHXBXBXHXFX",
">X,X,X,X<XpXaXkXkXkXkXdXkXkXzXkXVXkXVXjX3X-.7XKXLXLXKXGXGXLXKXZXL $XKXKXFXSXGXFXvXFXSX4Xc F.&XcXxX0Xh.qXa.5X6XnXHX0XtXyXMXMXBXBX",
":X,X=X=X=X2XdX8XzX8X8X8X8X8XzXzXkXkXmXSX1XH 7XHXHXmXFXmXGXKXKXZXD U.KXKXLXLXGXnXnXnXvX%XV $X2XjXhXHXtXyXl.h.h.MXHXNXtXtXwX0XqXrX",
"1X,X*X=X-XzXeXzX8XzX8Xq.g.8XeXzXCXmXnX8X4XG %X7XmXFXGXLXLXLXKXcXY R AXLXKXKXGXGXDXGXDX1XA R &X4X&X*XwXk.j.d.wXMXHXtXh.d.6.7.j.BX",
"xXhXcXvXzXeXzXzXzX9Xg.9X9XeXmX9X9XzXmXAXjXH %XbXDXGXGXKXLXKXKXlXR D cXGXGXKXKXDXcXlXvX4XD %XjXbX3XK.rXh.h.d.0XtXj.j.yXMXf.l.d.l.",
"nXxXmXnXzXNXzXNXzX9Xg.g.g.eXzXeXNXZXmXAXlXD ;.1XlXmXFXDXGXFXZX4XY S jXKXLXGXAXmXbXzXfX<XG 2XAXmX2X;.5Xk.d.y.h.yXyXqXMXtXl.9.9.l.",
"rXNXMX9X9XeXeXeXwXg.g.g.eXmXNXyXMXtXmXbXjXT T 4XbXDXKXKXLXKXFXjXL Z 1XLXGXDXSXSXZXxXfX:XC %XjXlX4X%Xp.d.y.h.MXtXyXMXMXHXtX9.9.f.",
"9X0X9Xg.g.0X9Xg.g.s.t.s.eXNX0XwXwXMXbXlX$XC E jXvXbXnXAXJXKXnXvXL A %XKXKXGXSXmXlXjX:XU.C T %XjXjX-X1Xf.f.tXBXMXl.l.j.yXtX9.9.9.",
"h.p.0Xk.g.a.r.y.a.s.s.rXyXtXk.d.wXnXlXlX&XG C 1XbXZXJXJXKXJXDXvXD V R GXGXGXFXSXcXjX2XY A D &X2XcXjX%Xp.9.wXtXqXtX9.f.yXyXtX2.9.",
"wX9Xk.k.h.y.r.a.0X0Xr.y.9XwXk.9.d.7XeXfX$Xk k 4XfXfXvXDXJXJXJXCXD Z D GXDXmXbX4X,X&XU.Y G C $X8XbXmX-Xq.1.6.7.7.f.8.f.qXk.6.<.qX",
"9Xk.h.h.a.a.a.y.r.y.y.y.t.0XwXd.h.bX%X;.T f d F.K.2XlXnXnXDXZXnXL j 9 mXmXlXzXlXfX:X&XD k k G W W &XjXp.2.2.2.<.7.f.qXqX6.<.<.<.",
"k.a.i.a.i.r.i.r.r.e.e.4.4.a.a.d.7X4X1X;.G f d H :X1XfXVXZXZXZXnXL 7 5 lXbXvX7X3X4X4X:XD G l G W T l F r.7.8.8.8.7.9.9.y.<.<.+.+.",
"5Xu.i.u.i.a.e.r.r.e.:.#.@.#.<.6.vX&X$X;.C d d G cXCXZXJXAXZXCXlXP 6 5 cXnXlXcXvXlX$XR C F { k y l eXvXnXd.8.8.7.8.7.2.+.O.O.O.O.",
"u.u.u.u.p.g.e.:.:.}  .} } o.4.rX4X1XT G k j u h &X2X,X1XfXcXvXlXD 4 < 4XbXlXfX,XW R W l l [ ) T 4XjXlX3XeX6.2.7.7.2.2.+.X.' X.X.",
"u.u.0.&.u.=.&.&.:.&.} ] ] #.e.xX1X-X%XD k l | u $X%XdXlXvXmXmXhXY , , K.fXfX4XK.U.%XW h { '  .T %X4X3XxX4X=Xg.7.2.<.2.+.X.` ` ` ",
"5Xi.w.=.%.%.%.%.&.} } } @.w.*X-XlX%X;.G g 0.,.g 4XbXCXAXZXnXZXlXY + + Y fXfX2X<X%XF.K.g ' ..[ H ;.K.6X,X*X7XNXtXf.6.4.<.O.X.` ` ",
"&.u.0.=.=.*.%.{ %.{ }  .3.eX7X3X&X-.$XG %.f.5.6XCXmXbXvXvXmXnXbXF.$ < 9 1XhX,XK.:X%XK.{ X.O.<.q.K.P 7X7XxXNXxXHXHXHXwXl.2.,.X.( ",
"y y %.=.&.*.%.{ $.} >.,.5.=XlXhX3X;.F H q.wXj.1XvXnXAXAXAXDXDXAX&X$ < 5 ,XfX1X1X,X1X$X` +.7.2.t.T *X6X7X6X*Xw.BXHXHXHXtX9.7.2.` ",
"y q { =.=.&.:.&.} ] 5.1.d.u.=.*X*X-.G F =.s.g.bXZXCXmXAXDXDXDXDX%X9 b f ,XlX,X&X&X$X$X' X.,.,.-.K.K.*X*.$.:.u.tXHXHXyXl.l.8.2.' ",
"y = $.=.=.:.#.] _ ' ,.,.4.5Xe.l l H C $.1.1.r.CXAXDXSXSXDXDXFXGX<X9 Z P 4XxXhXhXhX3X;./ ..O.+.#.*.F a { 0.p.u.0XMXyXyXf.7.2.2./ ",
"= q u l ] ] ] _ ' ' _ o.e.p.0.| y y | 5.5.3.6XbXZXSXDXDXDXGXGXGX4Xc V V 1XbXlXhXlXlX,X] ......O.3.} a } 0.u.5Xy.f.qXyXl.9.<.+.' ",
"q q & i ( ` ..X.o.+.o.X.r.u.=.l y a [ o.t. .;.-XvXKXGXGXGXJXFXGXnXV A Y <XmXZXZXZXAXlX] ../ / ] X.+.} {  .u.p.a.8.8.l.yXj.<.O.#.",
"q q w p Q ^ / / ' o.o.3.i.&.| a y _ _ ] o.H g s g G ;.1XlXxXFXLXKX&XD R <XmXbXvXZXnX3X$./ ../ ..X.,.5.) { &.p.p.6.2.<.4.d.9.<.O.",
"= q w p ^ ` ^ _ [ ,.3.p.u.&.a y p _ ' [ >.{ k g g f C V C G ;.*X4X7XE Y 4XSXlX1XK.R A s H / O.X.O.<.6.5.{ $.p.p.#.O.O...o.3.@.` ",
"= & q i ( ( ` ^ _ [ [ w.0.l y a [ ,.,.s.9X-X;XE T G G C C f g b k C Z c S G L 9 5 < 5 - f } O.X.X.,.,.d.>.{ =.=X=.X.O...` / ^ Q ",
"& = i i ~ Q ^ ^ _ ] l T k u i ( _ ' ] ,.>.W -Xw.-.1X3X&XK.D g f 5 j V 9 7 $ Z $ - < b 6 4 ) ,.O...,.9.6.1.l F E P { / ` _ ^ Q ~ ",
"X % w w r p p p y p Y G f - i Q ( _ Q ( a f g k F 3XDXGXJXDXvX;.G 9 4 6 4 $ V 9 c b 6 O 5 ! ../ ( o.o.` O.l Z L b g ! ^ y p p p ",
". . % = w q w w t C Y Y 9 - r p Q ~ ~ ( ) d j H 5 g H -.-X4XlX;.f 9 7 4 9 6 Z 9 < # O O + r ../ i p t Q ^ h L F.I j p [ a y w i ",
"* . q & & & & w a A P Y - * e Q w 0 r / Q F L d < : k j d d f 5 5 $ $ $ J Z 1 @ + O o o o * ^ ~ y r r Q / s D W j j l 2.1.y w y ",
"4 . % . % & . w h b C W X q ~ _ ] ) y r w G K m S x 1 5 d 7 d d - 4 4 5 6 < b Y P A b z @ ; r r r 0 p t / h T A j Z j 2.7.1.| >.",
"7 X % . . & & = f 6 d *.; s ) _ ` _ p 0 u D.I U.U.I m x 8 7 , - 4 4 - 4 < $ 8 c , + @ 4 7 5 s ~ w t r w r b D < < S 6 >.2.7.j.d.",
"A + . . % & 0 ; 7 7 u h % * e t r p i w d I B M m S K n K I K c 1 # @ # +   6 1 # + @ , + O 9 A e 0 t 0 0 { h ; # j m l 2.<.1.9.",
"G X . % & = q d 4 O u %.. . q r p p r q S S I I I n n m K U U U m 1 > @ @ o @ , , , 4 # + + 6 6 6 & w ! ! { { / q 8 V d [ X.' e.",
"G ; . % . . X 9 , + + * % X u g s s l k U R A.I K K n 2 1 8 c m S n z x 2 > > o o             $ O + % w t *.~ e p 8 n 5 / ` ` ` ",
"A . % & . . 5 6 +   . ; ; g b g * j j 7 U A.U.A.U I U U K 8 , , 6 8 8 3 2 > > > o o       #   $ +   + % e t t 0 * 9 j - ! ~ Q / ",
"w.D + + . + 9 6 $ , + e & & = ; . X * 4 B U I K 3 # 1 3 m M n 3 > > o @ o o o > > @ o     $ , <     + . & 0 w & & F h . t w r ~ ",
"Y s     + - 6 6 + - . ; % X . . . . X c I B B B M n 3 1 > > > 1 2 @ o o o o o O o o o o   # + # +   . % & 0 w 0 y $.h w r 0 0 Q ",
"; %       4 6 + + + . . . .   . + .   n M I B n M n M B n > > o o o o     o o o o o @ o o     @ #   + . ; . & ; h $.% 0 w 0 r / ",
"5 X .   + 6 6 +   X + .       . X $ $ n M M M M M M M M N n v z > o o     o o o o o > > o O   + +     .     . & . : % 0 & & r ! "
};
