/* XPM */
static char *_5594_8dc935641511acd57035917596f34c1bc413483a382c6794c4d33f25da397325[] = {
/* columns rows colors chars-per-pixel */
"64 64 252 2 ",
"   c black",
".  c #010101",
"X  c #020202",
"o  c gray1",
"O  c #040404",
"+  c gray2",
"@  c #060606",
"#  c #070707",
"$  c gray3",
"%  c #090909",
"&  c gray4",
"*  c #0B0B0B",
"=  c #0C0C0C",
"-  c gray5",
";  c #0E0E0E",
":  c gray6",
">  c #101010",
",  c #111111",
"<  c gray7",
"1  c #131313",
"2  c gray8",
"3  c #151515",
"4  c #161616",
"5  c gray9",
"6  c #181818",
"7  c #191919",
"8  c gray10",
"9  c #1B1B1B",
"0  c gray11",
"q  c #1D1D1D",
"w  c #1E1E1E",
"e  c gray12",
"r  c #202020",
"t  c gray13",
"y  c #222222",
"u  c #232323",
"i  c gray14",
"p  c #252525",
"a  c gray15",
"s  c #272727",
"d  c #282828",
"f  c gray16",
"g  c #2A2A2A",
"h  c gray17",
"j  c #2D2D2D",
"k  c gray18",
"l  c #2F2F2F",
"z  c gray19",
"x  c #313131",
"c  c #323232",
"v  c gray20",
"b  c #343434",
"n  c #353535",
"m  c gray21",
"M  c #373737",
"N  c gray22",
"B  c #393939",
"V  c #3A3A3A",
"C  c gray23",
"Z  c #3C3C3C",
"A  c gray24",
"S  c #3E3E3E",
"D  c #3F3F3F",
"F  c gray25",
"G  c #414141",
"H  c gray26",
"J  c #434343",
"K  c #444444",
"L  c gray27",
"P  c #464646",
"I  c gray28",
"U  c #484848",
"Y  c #494949",
"T  c gray29",
"R  c #4B4B4B",
"E  c #4C4C4C",
"W  c gray30",
"Q  c #4E4E4E",
"!  c gray31",
"~  c #505050",
"^  c #515151",
"/  c gray32",
"(  c #535353",
")  c gray33",
"_  c #555555",
"`  c #565656",
"'  c gray34",
"]  c #585858",
"[  c gray35",
"{  c #5A5A5A",
"}  c #5B5B5B",
"|  c gray36",
" . c #5D5D5D",
".. c gray37",
"X. c #5F5F5F",
"o. c #606060",
"O. c gray38",
"+. c #626262",
"@. c gray39",
"#. c #646464",
"$. c #656565",
"%. c gray40",
"&. c #676767",
"*. c #686868",
"=. c DimGray",
"-. c #6A6A6A",
";. c gray42",
":. c #6C6C6C",
">. c gray43",
",. c gray44",
"<. c #717171",
"1. c #727272",
"2. c gray45",
"3. c #747474",
"4. c gray46",
"5. c #767676",
"6. c #777777",
"7. c gray47",
"8. c #797979",
"9. c gray48",
"0. c #7B7B7B",
"q. c #7C7C7C",
"w. c gray49",
"e. c #7E7E7E",
"r. c gray50",
"t. c #808080",
"y. c #818181",
"u. c gray51",
"i. c #838383",
"p. c #848484",
"a. c gray52",
"s. c #868686",
"d. c gray53",
"f. c #898989",
"g. c gray54",
"h. c #8B8B8B",
"j. c gray55",
"k. c #8D8D8D",
"l. c #8E8E8E",
"z. c gray56",
"x. c #909090",
"c. c gray57",
"v. c #929292",
"b. c #939393",
"n. c gray58",
"m. c #959595",
"M. c gray59",
"N. c #979797",
"B. c #989898",
"V. c gray60",
"C. c #9A9A9A",
"Z. c #9B9B9B",
"A. c gray61",
"S. c #9D9D9D",
"D. c gray62",
"F. c #9F9F9F",
"G. c #A0A0A0",
"H. c gray63",
"J. c #A2A2A2",
"K. c gray64",
"L. c #A4A4A4",
"P. c #A5A5A5",
"I. c gray65",
"U. c #A7A7A7",
"Y. c gray66",
"T. c #A9A9A9",
"R. c #AAAAAA",
"E. c gray67",
"W. c #ACACAC",
"Q. c gray68",
"!. c #AEAEAE",
"~. c #AFAFAF",
"^. c gray69",
"/. c #B1B1B1",
"(. c #B2B2B2",
"). c gray70",
"_. c #B4B4B4",
"`. c gray71",
"'. c #B6B6B6",
"]. c #B7B7B7",
"[. c gray72",
"{. c #B9B9B9",
"}. c gray73",
"|. c #BBBBBB",
" X c #BCBCBC",
".X c gray74",
"XX c gray",
"oX c gray75",
"OX c #C0C0C0",
"+X c #C1C1C1",
"@X c gray76",
"#X c #C3C3C3",
"$X c gray77",
"%X c #C5C5C5",
"&X c #C6C6C6",
"*X c gray78",
"=X c #C8C8C8",
"-X c gray79",
";X c #CACACA",
":X c #CBCBCB",
">X c gray80",
",X c #CDCDCD",
"<X c #CECECE",
"1X c gray81",
"2X c #D0D0D0",
"3X c gray82",
"4X c #D2D2D2",
"5X c LightGray",
"6X c gray83",
"7X c #D5D5D5",
"8X c gray84",
"9X c #D7D7D7",
"0X c #D8D8D8",
"qX c gray85",
"wX c #DADADA",
"eX c gray86",
"rX c gainsboro",
"tX c #DDDDDD",
"yX c gray87",
"uX c #DFDFDF",
"iX c gray88",
"pX c #E1E1E1",
"aX c #E2E2E2",
"sX c gray89",
"dX c #E4E4E4",
"fX c gray90",
"gX c #E6E6E6",
"hX c #E7E7E7",
"jX c gray91",
"kX c #E9E9E9",
"lX c #EAEAEA",
"zX c gray92",
"xX c #ECECEC",
"cX c gray93",
"vX c #EEEEEE",
"bX c #EFEFEF",
"nX c gray94",
"mX c #F1F1F1",
"MX c gray95",
"NX c #F3F3F3",
"BX c #F4F4F4",
"VX c gray96",
"CX c #F6F6F6",
"ZX c gray97",
"AX c #F8F8F8",
"SX c #F9F9F9",
"DX c gray98",
"FX c #FBFBFB",
"GX c gray99",
"HX c #FDFDFD",
"JX c #FEFEFE",
"KX c white",
/* pixels */
"                                                                                                                                ",
"                                      . .         .   .                             X .               . . . . . . . . .         ",
"                                                                                                                                ",
"                                                                                        .                           .           ",
"        o = > : : : > > > , ; #     . = 1 2 2 *     . 1 2 3 2 @ .   & 4 5 4 4 4 5 5 5 4 =         $ , 2 2 2 2 2 3 2 , O         ",
"  .     2 M V G K R Q '  .+.=.#.&   . q.c.M.A.M.$ . 5 `. X@X;X;.  X v.eXyXyXpXhXjXgXxXnXyXw     4 :XbXmXnXNXnXmXMXMXNXa.        ",
"  .     3 m A F P W / [ O.&.>.9.k .   p.M.A.J.D.%   w .X$X=X<X8.    Z.pXsXdXkXlXcXvXmXVXZX+.X . J.AXFXSXFXDXGXGXFXJXGX8X.       ",
"  .     8 Z J I W _ [ @.=.;.4.i.c     f.D.H.E.U.%   e #X-X1X8X0.    G.dXhXkXcXcXNXmXmXZXSX@.  o 7XGXFXJXHXFXJXJXDXJXJX7X.       ",
"  .     8 H U ~ ' {  .&.<.4.w.g.n . . z.P.W./.Q.&   q -X,X7XqXr.  X G.jXlXzXzX*X6XBXMXAXDX#.. O 7XHXDXGXJX9X2X8XSXGXJX9X        ",
"  .     8 Y ! ` ..k + N 0.q.s.c.B     n.Q.(.[._.*   w 1X5XqXyXt.    K.zXbXnX$X  4 lXVXDXFX@.  o 9XHXFXHXZX3     eXKXHX8X        ",
"  .     9 ! ` | &.g   n i.i.j.B.Z     C.(.[.XX}.*   e 6XqXtXaXi.    P.vXmXBX@X  1 xXCXFXGX@.  O 9XJXGXKXZX<     eXJXKX0X        ",
"  .     0 `  .+.>.j   M g.h.n.H.S     F.{.oX$XoX*   r wXyXaXgXa.    I.mXNXCX$X  1 cXAXHXGX@.  O 9XJXGXKXZX<   . 0XKXFX6X        ",
"  .     q ..#.-.5.x   V v.v.A.Y.F     P.oX%X;X%X=   t yXaXgXkXd.    Y.NXVXAX%X  2 bXSXGXGX#.  O 9XKXHXKXZX<   . 7 t r 4         ",
"  .     w $.;.<.e.b   Z C.V.L./.J     E.&X:X1X-X=   t aXgXlXcXf.    T.CXZXSX%X  2 bXDXHXHX#.  O 9XKXHXKXCX<         X           ",
"  .     e =.1.7.a.B   S J.G.R.[.P     ~.>X2X6X<X=   r fXjXxXvXg.    E.ZXZXGX&X  1 bXDXJXHX#.  O 9XKXHXKXBX<         .   .       ",
"  .     w 3.8.t.k.B   H Y.U./.XXU     _.4X7XwX3X=   t kXzXbXMXj.    W.AXAXDX$X  > vXSXHXJXO.  O 9XKXHXJXZX,   .                 ",
"  .     i 6.u.a.n.A   D ~.!.].$XR     [.8XqXtX8X-   t zXvXmXBXj.. ) sXDXDXFXuXY =.AXDXJXGX}   O 0XKXJXKXVX1 V q.8.9.q.|         ",
"  .   . d r.f.k.V.G   L '.`.XX;XQ     .XeXyXaXwX-   y vXmXBXCXl.o &XGXJXZXGXFXKXKXJXJXKXnX<   O 0XKXJXJXCX1 x.KXKXKXKXqXo       ",
"  . . s p.s.l.M.F.G.D.!.[.}.$X3X^     +XuXaXfXrX-   y nXNXVXAXk.o #XJXGXSXFXFXHXJXGXGXHX-.    O 9XKXJXJXBX< x.KXHXKXHX9X        ",
"  .   j f.j.m.S.G.Y.W.`. XOX*X7X/     #XsXfXjXiX-   y MXBXAXSXx.o #XHXGXDXGXGXGXHXHXGXKXdXp   o qXKXJXKXBX1 v.KXGXKXKX8X        ",
"  X   z n.n.A.K.R.^.{. X$X;X1XwXU     %XhXjXzXaX-   y NXCXDXDXc.  [ lXFXJXKXCXBXCXHXHXKXJX.XX o qXKXKXJXBX, Y kXGXKXKX9X        ",
"  X   v Z.S.J.T.^. X#X,X7X0XuX`.&     -XlXzXvXfX;   u VXZXFXGXc.    !.HXHXGX<X2 i xXSXGXJXrX# o qXKXKXJXVX, X J.FXKXKX9X        ",
". .   , +.J.R.^.|.r.^ _ ' { ~ 1 .     :XxXvXnXhX;   i BXAXGXGXc.  . W.JXGXKX%X  = jXHXJXKXtX$ o qXKXKXJXCX, . K.FXKXKX9X        ",
". .     f U./._.#XW                   >XbXmXMXjX;   i VXSXGXGXc.    !.KXJXKX*X  ; kXFXKXKXtX# o qXKXJXKXCX<   L.FXKXKX9X        ",
"  X   . j ^.[.|.-X(     .             1XmXNXBXlX;   u VXDXGXJXv.    !.KXKXKX&X  ; kXGXKXKXrX# o qXKXJXKXCX, . L.FXKXKX9X        ",
"  X   . j '..XOX1X`     .             3XBXVXCXzX;   u VXDXHXJXv.    !.KXKXKX&X  ; kXGXKXKXrX# o qXKXJXKXCX, . L.FXKXKX9X        ",
"  X   . l .X#X&X7X]     .             4XVXCXAXcX;   u VXFXJXKXv.    !.KXKXKX&X  ; kXGXKXKXrX# o qXKXJXKXCX, . L.FXKXKX9X        ",
"  X   . l #X=X:XwX[     .             5XCXAXSXcX;   i CXGXKXKXb.    !.KXKXKX&X  ; kXGXKXKXrX# o qXKXJXKXCX, . L.FXKXKX9X        ",
"  X   . z =X,X3XyX}     .             6XAXSXSXcX;   y VXGXKXKXc.    !.JXJXJX&X  ; gXHXJXKXeX# o 9XKXJXKXBX< . H.DXKXHX9X        ",
"  X   . c >X4X8XaX|     .             5XSXSXDXmXq : b CXFXJXHXn.    !.KXKXJX;X- 7 lXFXJXJXyX# O 0XJXHXJXCXr , T.GXJXKX9X.       ",
"  X   . v 4X9XqXhXX.    .           . 8XDXGXSXHXNXMXCXGXHXJXJXb.    !.JXJXJXDXMXBXJXGXJXJXyX$ O qXJXJXJXJXMXNXFXFXKXKXqX        ",
"  X   . v 8XeXtXlXo.    .             :XGXFXFXHXFXKXJXJXHXJXJXp.    !.JXJXJXJXJXKXJXHXKXKX5X@ O 0XHXJXJXJXHXKXKXJXKXJX1X.       ",
"  X   . b qXyXyXcXO.    .             e.GXFXDXSXFXHXGXFXHXJXGXL     !.HXJXGXGXHXFXGXHXJXFX5.    G.JXHXGXFXGXJXGXFXJXKXd.        ",
"        r gXmXnXGXQ o   . . . .   . o = :XKXKXKXKXKXKXKXKXHX8..   O ^.KXKXKXKXKXKXKXKXKXW.    . 3 jXKXKXKXKXKXKXKXKXiX3         ",
"        . h M B z +                     O j B B B B B B N u X       e V V B B B B B B g @ .       , m B B B B B B x #           ",
"                . .   . .                                 .   .                           X . .                     .           ",
"      * l.c.m.b.N.m.C.A.Z.Z.Z.Z.Z.Z.S.F.S.D.Z.D.D.D.D.A.S.C.F.S.F.D.D.V.Z.D.D.D.D.D.F.Z.G.D.D.A.D.S.A.Z.A.A.A.Z.V.A.C.F.V       ",
"    . : sX7.=.=.*.=.*.-.-.-.-.-.;.-.;.:.:.;.:.:.:.:.:.:.;.:.;.-.;.;.;.-.;.:.:.:.:.:.-.;.;.-.;.;.:.:.;.:.:.:.:.:.;.;.%.qX|       ",
"  . X 7.vXa   X       . . .   . .       o .       . . .   X . .     . X X     X . .     .     . X     .   .     .     .X3X+ .   ",
"    . r xXs o X #.t.=   & 3.<.@ . A y.U X   ] u.y . . ` g.= X 3 t.4.:     ..j X - 9.e.v   e I . X W j.< X < X.7 D     XX1.. .   ",
"  X . : vXs . 9 %Xp.o.+ ( @X1XJ + y.9.-X. X ~.F P.o 3 uXa.m.+ f tXD.} X   9Xg.. + #.:X<   F l.O : sXu.S.@ y MX' a.    XX+.    . ",
". X o : bXd   8 }.9 6 . ] !.XXY X w.wX(.  X /.W.:.. 5 tX=.S.X g BXdXc . 2 &X X  X K =X    S k.X , uX*.P.  y zXdXu..   .Xo.. . . ",
".   . < bXd . 3 2XH.| . T <X0XS o i.m.{.  o !.:     , pXH.d.X h uXrXk o  .$X8X    L %X    A l.o ; uXD.z.o u :XG.p.    .XX.X     ",
"    X J CXd   X n P +   O H Z +   u 9 m     k @     X k Q $   * B f 7   g 2 h   o , c     , p   . s ^ %   $ b - r     .XM.o   . ",
"    . @.ZXd X                     .     X   .               .         .                                         .     |.].O   . ",
"    X , MXP.Z.S.C.A.Z.A.D.A.G.D.S.F.A.D.D.A.A.D.D.S.F.S.S.S.F.D.S.D.S.F.S.S.D.D.F.S.Z.S.F.F.D.S.Z.S.C.S.D.A.D.Z.C.C.N.dX| o     ",
"      # _ ' ] ] { [ ] { } [ | { {  .[ [ } [ } ] { ] } } [  .{ { { } { } [ { { { } [ [ ' }  .} { ` } [ { | } [ [ { [ { | t . . . ",
"  .       .   .   .           .                   .         .         o             .             X                             ",
"          , ^     . ^ $.7 b 3 X ^ w s x %.s m & Q & ;.( # { $ : *...@   O #.{ O ! ;.+ E j H d l $.k # X.# f l / 3 U k 9         ",
"        o ' uX    . 1X#.6.q.x # :XY @.8.C $ g.2 #X~ !.8Xh fX1 f 7X5 o X p f.n.. }.0.F }.D.qXo.r...XXl CXe #.1X1Xr ).<Xe .       ",
"          D.=Xk   . >XW.o.9.j + &XJ +.4.f., g.G.:XW L.=Xk uX1 p dXV     d y.9   /.$.P E.&X$X#.5.OX*.| @X#.#.%XnX0 { F..         ",
"        O '.C.<.  X +XH...2.Z.n E.K.R <.b.z w.5 `.v =X;X0 0Xh.l rXe.# X 2 W.Q.  _.R.y D.N.<.} ,.Y   u.y.G.#.*.qX6 F 7.          ",
"        . X X X     . . . . .   + ; . . . . X   X X # o . . . . . .       % $ . O & . . . . . . . . . . . . . . . . .           ",
"                                                                          .   .                                                 ",
"                                  .                 .                                                                           ",
"                                                                                                                                ",
"                                                                                                                                ",
"                                                                                                                                ",
"                                                                                                                                ",
"                                                                                                                                ",
"                                                                                                                                ",
"                                                                                                                                ",
"                                                                                                                                ",
"                                                                                                                                "
};
