/* XPM */
static char *_785_0cbd2d07be763a998adbc8b39979dcbea2d044bed04cfc88cb5dda90ad094c25[] = {
/* columns rows colors chars-per-pixel */
"64 64 215 2 ",
"   c #0D0D09",
".  c #100F0B",
"X  c #12110D",
"o  c #19110F",
"O  c #161112",
"+  c #1B1312",
"@  c #1B1716",
"#  c #1D1916",
"$  c #1E1A19",
"%  c #21130E",
"&  c #29140E",
"*  c #211514",
"=  c #211917",
"-  c #2C1C13",
";  c #231D1B",
":  c #291E1B",
">  c #3C1E16",
",  c #1F2018",
"<  c #25211E",
"1  c #29221E",
"2  c #31231E",
"3  c #3C261C",
"4  c #262423",
"5  c #292523",
"6  c #272825",
"7  c #2B2925",
"8  c #282728",
"9  c #2C2C2B",
"0  c #322B26",
"q  c #362925",
"w  c #3C2B24",
"e  c #332D2A",
"r  c #2F312E",
"t  c #363027",
"y  c #33312D",
"u  c #3A322C",
"i  c #2F3032",
"p  c #333532",
"a  c #3B3532",
"s  c #363936",
"d  c #3C3A36",
"f  c #3A3638",
"g  c #373D39",
"h  c #3B3D3A",
"j  c #46291D",
"k  c #55291F",
"l  c #54321D",
"z  c #492D24",
"x  c #522D24",
"c  c #4B3326",
"v  c #42352D",
"b  c #4C352D",
"n  c #42392E",
"m  c #57372A",
"M  c #413732",
"N  c #433B34",
"B  c #493E34",
"V  c #433D39",
"C  c #493E39",
"Z  c #533B34",
"A  c #5C3B31",
"S  c #683D2A",
"D  c #633F31",
"F  c #3E413D",
"G  c #464036",
"H  c #4A4036",
"J  c #43423D",
"K  c #4C433C",
"L  c #5B4337",
"P  c #52453C",
"I  c #53493F",
"U  c #69432D",
"Y  c #784628",
"T  c #7E4B2B",
"R  c #6A4634",
"E  c #754B39",
"W  c #62513F",
"Q  c #7A543D",
"!  c #3C3E41",
"~  c #3F4440",
"^  c #434642",
"/  c #4B4541",
"(  c #454844",
")  c #494A46",
"_  c #4B4D4A",
"`  c #514644",
"'  c #534B43",
"]  c #5A4D43",
"[  c #544E4A",
"{  c #5A4D48",
"}  c #4F514D",
"|  c #5B5146",
" . c #52524E",
".. c #5B534D",
"X. c #4E5458",
"o. c #535552",
"O. c #5B5551",
"+. c #575955",
"@. c #5A5A56",
"#. c #53595D",
"$. c #5B5D5A",
"%. c #664D43",
"&. c #605447",
"*. c #63544B",
"=. c #64594C",
"-. c #6A5B4E",
";. c #765848",
":. c #635B53",
">. c #6B5D51",
",. c #635E59",
"<. c #5F615D",
"1. c #6D6155",
"2. c #61635E",
"3. c #6D655B",
"4. c #736556",
"5. c #726658",
"6. c #79675E",
"7. c #76695C",
"8. c #7B6C5D",
"9. c #636661",
"0. c #6C6762",
"q. c #656A65",
"w. c #6A6B66",
"e. c #676B68",
"r. c #696E69",
"t. c #726C65",
"y. c #756F65",
"u. c #6D726C",
"i. c #7B7467",
"p. c #71756E",
"a. c #6F7270",
"s. c #727671",
"d. c #757A74",
"f. c #797D76",
"g. c #824E2F",
"h. c #84502F",
"j. c #824B3B",
"k. c #875639",
"l. c #915E3B",
"z. c #94623F",
"x. c #A2653B",
"c. c #895742",
"v. c #965D46",
"b. c #805D50",
"n. c #89634A",
"m. c #996548",
"M. c #856A58",
"N. c #9B6B51",
"B. c #82725F",
"V. c #A56D45",
"C. c #AB7358",
"Z. c #837464",
"A. c #847869",
"S. c #897D6D",
"D. c #957765",
"F. c #997461",
"G. c #847C78",
"H. c #A06C60",
"J. c #A67E68",
"K. c #B37C61",
"L. c #7D827B",
"P. c #89806F",
"I. c #95826E",
"U. c #81867F",
"Y. c #8A8579",
"T. c #958978",
"R. c #9F917D",
"E. c #BB8668",
"W. c #AD8A74",
"Q. c #C0815D",
"!. c #C58867",
"~. c #C58A6B",
"^. c #D7966E",
"/. c #CD9171",
"(. c #C7967D",
"). c #D39775",
"_. c #D69A79",
"`. c #DA9D7A",
"'. c #DEA07E",
"]. c #828780",
"[. c #858982",
"{. c #8D8D82",
"}. c #998E8E",
"|. c #9D9586",
" X c #A39886",
".X c #BA9983",
"XX c #B0A48F",
"oX c #A6A192",
"OX c #B3A895",
"+X c #BCB39F",
"@X c #C29C87",
"#X c #DA9F80",
"$X c #C6A48A",
"%X c #D6A386",
"&X c #CBAB92",
"*X c #C7B89F",
"=X c #D8B197",
"-X c #E5AB8B",
";X c #EBAE90",
":X c #ECB394",
">X c #E9B899",
",X c #F3BA9B",
"<X c #F5BA99",
"1X c #C9BBA3",
"2X c #F8C19D",
"3X c #CFC1A8",
"4X c #D5C3AA",
"5X c #CFC8B8",
"6X c #E7C8AD",
"7X c #F8C3A4",
"8X c #FAC4A5",
"9X c #FBCAAB",
"0X c #FAD6B7",
"qX c #FDDFC2",
"wX c #FBE8CA",
/* pixels */
"q.e.q.q.q.q.r.q.q.r.r.r.u.L.u.L.d.d.d.d.d.L.d.L.d.L.d.L.L.L.L.L.L.U.L.L.U.L.U.U.L.L.L.L.U.U.U.U.U.{.{.{.L.{.[.[.[.[.[.[.[.[.[.[.",
"q.9.q.q.q.q.q.q.q.r.r.r.r.u.u.r.s.s.s.s.s.a.s.d.d.d.L.d.d.L.L.d.L.L.L.L.L.L.L.L.L.L.L.L.U.U.U.L.U.U.L.[.L.L.[.[.L.[.[.[.L.[.[.L.",
"q.2.9.9.2.q.q.2.q.q.q.q.q.r.u.p.s.s.s.s.s.s.s.s.d.d.s.d.L.d.d.L.d.L.L.L.d.L.L.L.L.L.L.L.L.L.L.L.L.L.[.L.L.L.L.L.L.L.[.L.L.L.L.L.",
"2.q.9.9.q.q.2.q.q.q.q.q.q.r.u.u.u.u.a.s.s.s.s.s.s.d.s.d.d.d.d.d.d.d.d.d.d.L.f.f.L.L.u.L.L.L.L.L.L.L.L.L.L.L.L.L.L.L.L.L.L.L.L.L.",
"<.2.2.2.2.2.2.q.2.q.q.q.q.r.r.u.u.r.u.u.u.u.u.a.u.s.s.s.s.s.d.d.s.L.d.d.d.d.d.d.L.L.u.L.L.u.L.L.L.L.u.L.L.L.L.r.L.L.L.L.L.L.L.L.",
"<.2.2.<.<.<.2.2.2.9.9.q.q.q.q.q.u.r.a.u.s.u.u.u.u.s.s.u.s.s.d.L.{.U.d.d.s.s.s.s.r.L.u.L.u.L.u.p.L.L.L.L.L.r.L.L.L.q.L.L.L.L.r.L.",
"<.<.<.<.2.<.2.2.2.2.q.2.q.q.r.r.r.r.u.u.u.u.u.u.r.u.u.s.p.i.T. XOX+X Xd.u.p.s.s.L.r.u.L.L.r.p.L.u.u.L.u.u.L.L.u.q.L.L.q.r.L.L.r.",
"<.<.<.<.<.<.<.2.<.q.2.q.q.q.r.r.r.e.e.r.u.u.e.e.r.r.r.r.t.3.P.|.T.T.oXY.u.u.p.u.u.u.u.u.u.u.r.L.u.L.q.L.L.q.q.L.L.q.L.q.L.r.L.r.",
"$.$.$.<.<.<.$.<.<.2.<.<.<.q.r.r.e.e.e.e.e.e.e.e.e.r.r.@.:.J..X@X&X$XI.oXp.r.u.p.r.u.u.u.u.u.u.u.L.<.L.<.L.+.+.L.q.L.L.q.L.<.L.9.",
"$.$.$.$.$.$.$.<.<.<.<.<.<.q.2.q.a.r.e.e.e.e.e.e.e.e.9.) %.J.=X=X4X6X&XT.f.w.r.r.w.u.r.r.u.r.r.u.<.L.<.L.+.L.L.L.q.9.q.9.<.L.L.q.",
"$.@.$.$.@.$.<.<.<.<.<.<.<.9.q.r.a.e.a.e.e.9.e.e.e.e.9.V o.G.0.,.].5XY.S.s.e.e.e.e.r.w.r.r.r.r.r.L.+.L.+.L.+.L.+.q.<.q.L.<.L.<.<.",
"+.+.$.+.@.@.@.@.<.<.<.<.<.<.q.q.e.e.e.e.e.9.e.e.e.9.9.f f ; i ,.$.#.o. .w.e.e.e.q.w.e.e.q.q.q.q.L.<.o.L.o.L.o.L.q.L.q.q.<.q.q.q.",
"+.#.+.+.+.<. .=.;.=.<.2.<.9.9.q.e.e.9.e.e.e.e.e.9.9.e.A M q i ` +. .[ %.p.0.9.9.2.w.q.q.q.q.q.q.+.q.q.q.L.} L._ L.o.<.+.q.L.+.<.",
"+.+.+.+.+.+.+.6 Q x.z.;.1.2.9.9.9.9.9.9.e.e.a.e.e.e.0.j.` M v H.;.B C #Xr.0.9.9.2.2.q.2.2.2.q.2.<.<.q.<._ L._ L.} L.<.L.<.<.<.<.",
"o.o.o.o.o.+.o.F 2 z.V.x.V.V.n.>.<.9.e.e.r.a.a.a.r.e.9.,.] D A Z F.E.D.Z.2.9.<.9.2.2.2.<.2.q.<.q.L.<.<.<.L.( _ L.+.L.<.<.<.<.<.<.",
"o.o.o.o. .o.o._ X U l.z.n.m.m.l.c.;.3.O.0.0.0.r.e.e.9.9.` ` Z ;.F.F.J.{.2.$.<.$.2.<.<.<.2.<.<.<.} <.<.<.( L.+.<.o._ <.<.<.<.<.<.",
"} } } o.o.} } } o U h.h.k.k.k.h.T k.l.n.(.J.S.0.o.9.e.9.` v b n.D.;.I.*Xi.,.<.$.$.<.$.$.<.$.$.<.+.<.<.<.<.<.<.<.<.<.<.<.+.<.+.<.",
"} } } _ } } } _ + m Y g.h.h.h.g.T g.Y n.)./.C.`  ./ 9.:.v b v %.M.B.4X*XXX2.o.o.o.+.$.$.$.$.$.$.+.<.+.+.+.<.+.+.+.+.<.+.+.<.+.+.",
"} _ _ _ _ _ } _ f V C b m c l l S U W u v c l j 7 = ..OXP m z - -.3X4X4X3XP.N d y J $.@.+.@.$.$.<.+.+.<.<.+.+.<.+.+.<.<.<.+.+.+.",
"_ _ _ _ _ _ _ _ _ _ _ }  . . .) u 3 ' O.` [ y j.c < N =.R.z c >.3.+X5X4X1X .N )  .o.+.+.@.o.o.$.+.+.+.+.+.+.+.+.+.+.+.} o.o.+.+.",
"_ _ ( _ ( _ ( _ _ _ _ _ } _ o._ 5 q a N a y y I y u   @ 6.w Z >.X 9 Y.3XR.f d d d K )  .o.+.o.o.} +.+.+.+.+.+.} o.+.o.+.o.+.o.o.",
"~ ~ ( ( ~ _ ( ~ ( ( ( _ _ _ _ / u 7 7 1 V ) _ / p e   4 e m %.; y r < G C P N a N *.v 5 o.o.o.o.+.} } +.} } +.} o.o.} o.} } o.} ",
"( ~ ~ ( ( ( ~ ( ^ ( ( ( ( ( ( ^ n B u a ) ) _ V @ $ u a e b.C 0 ' 3.[ [ [ a N P =.4XwX1X2. .} } } } +.} +.} } +.} } o.} o.} } } ",
"~ ~ ~ ~ ~ ~ ~ ~ ^ ~ ^ ^ ^ ( ( K M H H / ( ( 6.a ; = M M u :.` f { =.O.w. .0.>.XX&X9XqXwX4X .} } } } } } } } } } } } } } _ } } } ",
"~ ~ ~ ~ F F ~ ~ ~ ~ ~ ~ ^ ~ ~ %.R R Q ^ ^ *.;.4 ; ; / a M C C J V ^ 2.p.0...S.$X:X2X7X0X0Xy.} } } _ _ } _ } } } _ _ _ _ _ _ _ _ ",
"! ! ! g ! V F h F F F g h F g ;.k.V.N.F >.m.C 1 $ 7 C u ` ` C ` a ) 0.y.{ ` R.E.~.%X=X2X0XT._ } _ _ _ _ _ _ _ _ _ _ _ } _ _ _ _ ",
"h h h h h h h g h h g h g h h c.k.v.N.B.!.k.c 1 = i a u ` O.` f u a M ..' J S.E k.E.).>X9X$X( ( ( ( _ ( ( _ ( ( ( _ ( ( ( _ ( ( ",
"g g g g g g g g g g g g g h / ;.j.v.v.C.v.l w 1 : 1 e e { O.C ` O.u y a a H i.q k.!.'.>X8X>X^ ( ( ( ( ~ ( ( ( ( ( ( ( ( ( ( ( ( ",
"s s s f s s s s g g g s s g *.E E k.j.j.k & 2 1 $ 9 7 u [ [ / V V V W 8.3.a =.w l.).2X2X2X9X=.( ( ( ~ ( ( ~ ~ ( ( ( ( ( ( ( ( ~ ",
"s s s s s s s f f f s s s p %.L S S S k & % = 2 5 i 0 h [ J J a X.T.@.N.L : B B U ~.2X7X9X9XL.~ ~ G ~ G ~ G ( G ~ ~ ~ ~ ~ ~ ( ( ",
"s s s s s s p p s s p p s p Z 3 > j x > % ; < o + 1 a M [ / f ; #.}.F G # = 1 -.t Q.-X9X9X0XR.G ~ G ~ ~ g ~ ~ G G ~ G ~ ~ ~ ~ ~ ",
"s p p p s p s s p s p s s p t - - j > : 9 y r # + + < p / J :.,.{ Y.1 L n * # u , Q ^.2X2X2X>X~ ~ g g g G ~ g ~ g ~ g ~ G g ~ g ",
"p p p p p p p i p p p p p p y ; 2 1 r p p p p < ; O $ a V V ` s.&.;.< # 2 , < #   3 C.'.:X7X7X=.g g g h g d h N F h F d F F d F ",
"p p p p p p p p p p p p p p y p p p p p p p p < X . O f K M e / d N d r r t 5 # # 7 U K._.:X<XB.f s f f g g g g g g g g d F d g ",
"r p r p r r p p p r p r p r p p p r p r r p r X   , @ V f 0 < 4 ..K / a y 2 $ < $ y q R N.-X<X@Xp s s s f s s s a s s s s s s F ",
"p r p r p r p p p r r p p r r i p r r p r r r o @ p 5 / f a $ O < d J u 7 = # # 9 y y 3 c ~.<X,XF p p y p p p s s p s s s s s p ",
"r r r r i r r 9 r r 9 y p 9 i p r r r r y r r < 7 f 4 [ a K  .f K 3.K t 0 1 # < e 9 i b x K.;X<X4.y y r y p p p p p y p p p p p ",
"9 r r r e i 9 p r r 9 r 9 p e 9 r r r 9 9 r 7 $ 9 4 0  .d e < 7 @.w.G d a G r 1 i i i v E K.`.;XW.r r r r r r y y r p y p y p p ",
"r 9 9 i p 9 9 p i 9 r 9 9 9 i i 9 r 9 9 r 9 ; 9 ; @ e O.` 0 9 9 O.w.J t.1.u 1 p e i i u R C./.-X(.9 r r r r r r r r y r r y y r ",
"9 9 9 9 9 9 9 9 9 i 9 9 9 9 9 9 9 9 9 9 9 9 $ ; i 8 7 O./ e e e 6 : 7 7 t < < 9 9 9 9 e D C./.`.%X9 9 r r 9 9 r r r 9 9 r r 9 r ",
"9 9 9 9 8 9 9 9 9 9 9 8 i 8 9 9 9 9 9 9 9 8 $ < f f f _ C $ $ $ h N y.2.K y F y r r r 9 A v.~.).'.9 9 9 9 9 9 9 9 9 9 9 9 9 9 9 ",
"7 9 9 8 9 8 9 9 9 7 8 9 9 8 8 7 7 7 8 7 9 < < @ ; p V / / h / 6 5 7 d ' G 0 t 2 7 7 9 6 M v.!.^.).r 9 9 9 8 9 9 9 9 9 9 9 9 7 9 ",
"8 8 8 8 8 8 8 8 8 8 8 8 8 8 8 8 6 6 7 7 8 , 4 @ ; e h ..@.J ,.e +.V 2.[ F u 2 0 7 8 6 6 u c.Q.).).r 9 9 9 8 8 9 6 9 7 9 6 9 7 9 ",
"8 8 6 6 8 6 8 8 8 8 8 5 8 4 8 7 7 6 6 6 8 4 X 4 4 ; a u K V V 9 V V ' ,.' K t 1 6 9 6 7 8 R C.~.~.r 8 6 9 8 8 4 6 6 6 7 9 6 6 6 ",
"8 8 6 6 6 6 6 8 8 5 5 5 7 8 5 5 4 5 6 4 6 < # , 9 4 e e G ) 3.0 V e u N d 0 < < 6 8 6 5 6 M -.A.-.y 5 6 8 8 6 8 6 6 8 4 6 6 8 6 ",
"8 8 4 8 6 6 4 8 8 8 8 5 5 5 5 5 4 5 5 5 r J y 7 , < 7 5 < 7 J G V /  .O.[ :.H G d 6 6 6 6 u :.Z.-.0 7 6 8 6 8 6 8 8 8 8 8 8 8 8 ",
"4 6 8 6 8 4 6 6 5 5 8 5 5 8 5 5 5 5 5 4 N K / K G $ y < < e G G *.7.A.T.R.T.Z.Z.| 5 5 5 6 7 N ` V e 8 4 4 6 6 8 8 4 8 8 7 8 8 6 ",
"6 4 4 4 4 4 6 4 4 4 1 8 1 5 1 5 5 1 1 4 y a N [ =.K F -.y.1.8.L.S.S.Y.I.A.5.=.P y 5 4 4 4 0 M M e 5 6 4 6 6 6 8 4 4 8 8 4 4 4 4 ",
"4 6 4 4 4 5 5 5 5 5 4 4 1 4 1 4 5 5 1 5 : e e e N 7 1 t G K I K I N n H N w 5 5 8 ; : 8 4 M 0./ u 4 4 4 8 8 4 4 4 4 4 4 4 4 4 4 ",
"4 6 5 5 1 5 < 5 1 1 1 4 4 1 1 1 1 5 : 5 5 M C a 7 < $ < 1 5 0 0 < 0 t u K -.-.0 ; 8 ; 8 5 [ ,.` e 0 4 4 4 4 4 4 ; 4 4 4 4 4 4 4 ",
"4 4 4 1 1 4 < 1 1 4 1 1 : 4 1 5 5 : 1 1 5 e u e u y 5 t t t t I | B.A.Z.A.I.4.C 8 ; 8 ; q [ M f q 4 5 5 4 4 4 ; 4 4 $ 4 ; 4 $ 4 ",
"1 < 4 1 4 < 1 < < < 1 ; : : : : : ; : < q M u 5 t 2 1 a K I I 8.B.Z.B.| | 1.B.*.; ; : 5 c.w : C i 5 < < ; 4 ; 4 ; 4 4 $ 4 ; 4 ; ",
"< < < < < < < 1 : : : : ; : ; : : : : = 0 u u 5 7 t 5 K | ] I n I | | P *.8.Z.>.8 ; ; A N.3 : f V V i ; ; < ; ; $ 8 ; $ $ ; 4 ; ",
"< ; ; < < ; ; ; ; ; ; ; ; ; = ; = : = : a u 7 0 0 7 1 t I I | I 4.5.8.B.6.Z.B.>.f * ; 2 A w 5 : . $ $ $ $ ; ; ; $ $ ; 4 $ ; ; ; ",
"; < ; ; = < ; ; = ; ; : = ; ; = = = ; ; u a e 0 n K y B I I I I -.1.5.5.4.4.6.3.f $ $ 2 x b 9 @ $ $ = = $ $ $ $ $ ; $ $ ; $ $ ; ",
"$ ; $ ; ; = = ; = = = * ; = = = * * * = 0 1 y N K / u N K G K ] I | >.>.-.1.6.>.Z $ * : A z + @ $ $ $ $ $ $ $ $ $ $ $ $ $ $ $ $ ",
"$ $ $ $ * * * * = = * * * * * * * * * ; 0 7 < 0 2 < # # < 1 u v P I W I W &.=.-.K = $ + @ @ * * + $ + $ $ $ $ $ $ $ $ + $ $ $ $ ",
"* * @ $ ; $ * * + $ + * * + * = + * * * 5 5 = # 1 , X .   . o y G a H H I | | | Z ; + + @ + + + O $ O $ O $ O $ + + $ $ $ + $ $ ",
"$ = * * * + + * + * + % + + + * * o + = q e e q 1 , # X o # # # 2 F G n I I I I M * + + O + O + $ O O $ O $ + O + $ + $ + + O + ",
"@ + + + + + + + + + + + + % + + o * o * q u e e , # # # o o # ; < t n H N ] W I M * O + + O + + O O + O O O O + O O O O + O O 8 ",
"+ O + + o o o + o + % o + & % + o * o * 5 5 7 t 7 < # o # o # = 2 y u n B P H K q ; O + O + + + + + + O + O O O O O O + O O O 8 ",
"O + O O o o % % + + + + + o o o o o o * 1 t u t 1 , @ o # o o < < 1 t u u B n K M ; + O + + + + + O + + + O O O O O O O O O O $ ",
"o + O O o o O O o o O o o o o o o * o # 1 7 u 0 < # o o o % o # < < u u N I B I C 2 o o o o + + + O + O O O O O O O O O O + + + ",
"* * % o o o o % % o % % + % o + o + o = 1 7 7 1 < , # , + o o o $ < u N M B B I C q + o o o + O O O O O O O O O O + O O O O O + "
};
