/* XPM */
static char *_2902_7beb88b5da68e825cd9d0ff43bf968b19e41c2f435ae8cb4dd79ca0300ba0c53[] = {
/* columns rows colors chars-per-pixel */
"64 64 160 2 ",
"   c #0E0D0C",
".  c #140E0D",
"X  c #1D0E0F",
"o  c #12100E",
"O  c #18130F",
"+  c #110E11",
"@  c #1B0E11",
"#  c #151413",
"$  c #1D1314",
"%  c #171816",
"&  c #1B1916",
"*  c #171718",
"=  c #1F1718",
"-  c #1D1C1C",
";  c #200E12",
":  c #211415",
">  c #221B16",
",  c #211718",
"<  c #211D1B",
"1  c #291E1B",
"2  c #1E201E",
"3  c #2D2317",
"4  c #22211E",
"5  c #2A241E",
"6  c #1E1F20",
"7  c #201F20",
"8  c #1F2020",
"9  c #232422",
"0  c #2A2622",
"q  c #272926",
"w  c #2B2925",
"e  c #272928",
"r  c #2B2C2A",
"t  c #312624",
"y  c #322C25",
"u  c #3A2C23",
"i  c #322D2A",
"p  c #3C2F2B",
"a  c #2E312E",
"s  c #343127",
"d  c #32322D",
"f  c #3A352D",
"g  c #3C392E",
"h  c #2F3430",
"j  c #333532",
"k  c #3B3631",
"l  c #353A34",
"z  c #3A3A35",
"x  c #373C38",
"c  c #3B3D3A",
"v  c #442F27",
"b  c #452E2A",
"n  c #492F2D",
"m  c #443329",
"M  c #49342E",
"N  c #423433",
"B  c #413D34",
"V  c #493A33",
"C  c #413F3D",
"Z  c #4A3D3C",
"A  c #553B33",
"S  c #513C38",
"D  c #3D423C",
"F  c #424035",
"G  c #42433E",
"H  c #4A473C",
"J  c #4C4A3E",
"K  c #51413E",
"L  c #3F4640",
"P  c #434541",
"I  c #4C4542",
"U  c #454A44",
"Y  c #4A4B46",
"T  c #4B4E4A",
"R  c #534545",
"E  c #534C44",
"W  c #5C4C42",
"Q  c #544C49",
"!  c #5E4D4B",
"~  c #475048",
"^  c #4D534C",
"/  c #51534E",
"(  c #51594F",
")  c #545552",
"_  c #585754",
"`  c #545B53",
"'  c #595C56",
"]  c #5C5D5B",
"[  c #6E594E",
"{  c #655454",
"}  c #615954",
"|  c #7B5F53",
" . c #596157",
".. c #5C635B",
"X. c #61645E",
"o. c #68655E",
"O. c #61695E",
"+. c #6B6A5F",
"@. c #7F6A5E",
"#. c #646561",
"$. c #656C63",
"%. c #6D6E6A",
"&. c #716B68",
"*. c #697166",
"=. c #6D746B",
"-. c #737366",
";. c #72746C",
":. c #79756E",
">. c #71796E",
",. c #757573",
"<. c #757C73",
"1. c #797E75",
"2. c #7C7E79",
"3. c #8A6B5F",
"4. c #94786A",
"5. c #847F74",
"6. c #798176",
"7. c #7C847B",
"8. c #82867E",
"9. c #89857C",
"0. c #81897E",
"q. c #8B897F",
"w. c #828680",
"e. c #848C82",
"r. c #898F89",
"t. c #938F85",
"y. c #908E88",
"u. c #899186",
"i. c #8D948B",
"p. c #929185",
"a. c #90968E",
"s. c #91998E",
"d. c #949693",
"f. c #949B93",
"g. c #989F97",
"h. c #999F98",
"j. c #99A097",
"k. c #9CA39B",
"l. c #A1A79F",
"z. c #A2A7A0",
"x. c #A4ABA3",
"c. c #A8AEA6",
"v. c #AAAFA8",
"b. c #A8B0A6",
"n. c #ADB2AB",
"m. c #B1B5AE",
"M. c #B6BAAF",
"N. c #B2B7B0",
"B. c #B5BAB3",
"V. c #B9BCB6",
"C. c #BBBEB9",
"Z. c #BEC1BB",
"A. c #C1C3BE",
"S. c #C4C6C1",
"D. c #C6C8C3",
"F. c #C9CBC6",
"G. c #CCCEC9",
"H. c #CED0CB",
"J. c #D1D3CE",
"K. c #D3D5D1",
/* pixels */
"d.f.f.j.j.k.z.l.l.x.b.b.x.b.b.v.c.n.n.n.n.n.m.N.B.B.C.Z.C.S.S.S.D.F.F.F.F.F.F.F.G.H.J.J.K.J.K.K.K.K.K.K.K.K.K.J.J.J.G.D.D.S.Z.Z.",
"s.d.f.j.k.k.z.l.x.x.x.b.v.v.v.v.v.n.n.n.n.m.m.N.B.C.Z.Z.A.S.S.S.D.F.F.F.F.F.G.G.G.J.J.J.K.K.K.K.K.K.K.K.K.K.K.J.J.J.J.G.G.S.S.Z.",
"i.s.f.f.h.j.k.k.l.x.x.x.x.x.b.b.b.v.b.n.n.n.m.M.B.B.Z.Z.S.S.S.D.S.D.D.D.D.F.F.F.G.G.H.J.J.J.J.J.J.J.J.J.J.J.J.J.G.G.G.F.F.S.S.Z.",
"u.i.s.f.f.h.j.j.k.l.k.x.x.x.x.x.x.c.c.b.n.n.m.m.B.B.Z.B.C.A.S.D.S.D.S.S.S.S.D.S.F.G.G.G.G.H.H.H.G.H.H.H.J.G.G.G.G.G.F.D.S.S.Z.Z.",
"u.u.i.s.s.f.f.h.h.k.k.k.k.z.z.x.x.x.x.c.v.n.m.m.N.B.Z.B.Z.Z.C.C.V.V.C.A.A.A.S.S.D.F.G.F.G.G.G.G.G.G.G.G.G.G.G.F.F.F.D.S.S.S.C.C.",
"e.e.u.u.i.s.f.f.f.h.k.h.k.k.k.k.l.l.x.c.c.b.n.m.N.B.N.Z.Z.B.x.e.%.] 2.c.C.A.A.A.S.F.F.F.F.F.G.F.F.G.F.F.F.F.F.S.D.D.S.S.Z.Z.C.B.",
"7.e.u.e.r.u.s.s.f.f.f.h.h.h.k.k.l.k.l.l.l.c.c.n.n.N.B.B.N.a.^ r j C I ] y.N.A.A.S.D.S.S.S.D.D.D.D.F.S.S.S.S.S.S.Z.Z.Z.C.B.Z.B.B.",
"7.7.e.e.e.u.u.a.i.a.f.f.f.h.h.h.j.k.l.l.j.q.q.M.n.N.N.B.l.$.l e j T / Q ) d.V.Z.Z.Z.S.S.S.S.S.S.A.A.A.A.A.A.A.Z.C.C.B.Z.B.B.N.n.",
"7.7.7.7.e.e.r.r.r.i.i.f.f.f.f.f.h.j.j.f.%.T 5.M.v.m.N.N.a.) c a j ] ] ,.' ' d.B.Z.Z.Z.Z.Z.Z.Z.Z.Z.Z.C.C.C.C.V.V.C.B.B.N.m.m.v.v.",
"<.7.7.7.7.w.7.e.r.r.i.i.r.i.f.f.f.f.h.i.;.X.9.M.c.v.m.x.1.) I z C ,.#.Q G x ) c.V.C.C.C.C.C.C.C.C.C.V.V.N.M.M.M.N.N.m.v.v.v.c.x.",
"=.<.<.7.7.7.7.w.0.e.r.r.r.r.r.i.a.s.f.f.u.:.q.M.x.v.v.d.#.Y C c X.&.I i 5 = = d.B.V.B.V.B.C.B.B.N.N.m.m.m.n.b.n.v.v.c.c.x.x.z.k.",
"=.,.<.<.<.<.7.7.7.0.0.e.e.r.r.r.r.a.a.s.i.-.p.n.x.x.c.r.] T U Y T V M A v > = a.N.B.B.N.N.B.B.N.N.n.n.n.v.c.b.b.x.x.z.k.k.k.k.h.",
"=.=.=.<.<.<.<.7.7.7.7.e.e.e.e.r.r.r.i.s.u.:.p.l.k.x.g.,.' _ _ Y k A | 3.u $ q r.n.N.N.N.m.m.n.n.n.n.c.x.b.l.l.k.k.k.j.j.g.j.f.s.",
"$.=.=.=.=.<.<.<.<.7.7.7.7.7.0.0.w.e.e.r.e.:.p.l.j.k.e...' _ / m m [ 4.3.y = c w.v.N.m.n.n.v.v.v.x.x.x.z.l.k.k.k.j.j.f.s.d.i.u.u.",
"$.$.$.=.=.=.=.,.<.<.<.<.6.7.7.7.w.w.0.e.e.1.-.a.d.r.%.) E c y 3 m W @.[ 3 9 _ w.c.v.v.c.c.b.x.x.z.z.k.k.j.j.j.s.s.s.s.i.i.u.u.e.",
"$...$.$.$.=.=.=.=.,.>.<.<.<.<.<.1.6.7.8.0.<.#.8.e.#.P c d < 1 0 5 y N d = 0 ] r.z.z.z.z.l.l.k.k.j.k.j.g.j.s.s.s.i.i.u.u.0.0.7.7.",
"....$.$.$.=.=.$.=.=.=.=.,.=.,.,.<.<.<.7.7.1.w.%...c l r i = w G w # .   = 0 } e.g.k.k.j.k.j.j.j.g.g.d.s.s.s.s.s.0.0.7.7.7.6.6.6.",
"` ..........$.$.$.$.$.=.$.=.=.,.=.=.=.%.%.$.#.C C Y _ I I N Q _ z -     7 w C #.w.f.h.h.j.j.s.s.s.s.s.i.q.i.0.7.0.0.6.6.6.6.6.6.",
"` ` ..........$.$.#.$.$.$.$.$.$.$.$.O.^ ! C c j Q ,.9.:.} R { ) c r * 0 K Z p / 7.a.s.s.i.s.s.i.i.i.e.e.0.0.7.6.7.6.6.6.6.*.6.O.",
"` ` ` ` ..` ] ] ............$...$.O...L z w c ] &.t.w.w.#.I Q Y z j - t ! { R _ e.i.u.u.u.e.u.u.e.0.0.0.7.7.6.6.6.6.6.*.O.6.*.O.",
"^ ` ` ` ` ` ` ` ` ` ` ` ` ` ..]  ...../ r q c ' #.2.} ;.#.Y P P z i 7 > S { R I 1.w.w.e.0.0.7.7.7.7.6.6.6.6.>.*.6.*.O.6.O.O.6. .",
"~ ~ ~ ) ~ ` ` ` ) ( ` ` ` ` ` ` ` ` ` Y 0 4 G T c ] X.%.%.) I C j r q * N Q f P <.7.7.7.6.6.7.6.6.6.6.6.>.*.6.*.O.6.O.O.O.O.O. .",
"~ ~ ~ ~ ~ ~ ~ ~ ( ( ^ ^ ^ ^ ) ^ ^ ) / d 4 - j Y c Y ,.%.w.,.T C j j r = 4 Y c T $.<.<.<.6.>.>.6.>.>.>.*.*.*.*.$.O.O.O.O.O. . . .",
"L ~ ~ ~ ~ ~ ~ ~ ^ ^ L ^ ^ L ^ ^ ~ ^ U 4 2 9 9 k j Y &.#.#.] _ j r h r 0 % P H T ' =.>.>.=.=.*.=.*.*.*.$.$.$.$.O. .O. . . . .( ( ",
"L L L ~ L ~ L T ~ L L T L T L L U T c & < e - 8 e P %.o.T ) _ j q r r e = P U P ^ $.$.*.*.$.*.$.O.+.O.O.O.O..... . . .` ( ( ( ( ",
"L L L L L L L L L L L L L L L L ^ ^ c e r e & & e Y X.^ j C _ c 9 9 d r - T ) z ` #.#.............O..... ... . . .( ( ( ( ( ^ ^ ",
"x L L x L L L x x L L x c L x L Y 0 j q r 9 - & w G T k r Q #.T < 9 r e - ) #.i ) .. . ... ... ... . . .` ` ( ( ( ( ^ ( ^ ~ ~ ~ ",
"x L x x x x x x x x x x x x c C k w 9 r c 9 8 - 0 U P 4 7 e j j < 9 r w - P _ j U ` ` `  .` ` ` ` ` ` ( ( ( / ( ( ~ J ~ ~ U ~ J ",
"x x x x x x x x x x x x h x x x q k r P C a e & w D a - - 9 9 x a i a 9 - l z i j ` ^ ^ ^ ( ^ ^ ( ( ^ ^ ^ ^ ~ ^ ^ ~ ~ U Y U U J ",
"h x x x x h x h x x x h x h x e % h c ] 7 6 - - k z 0 2 d Y #.#.C j r 9 - x j e 9 G ^ Y ~ ~ ^ ^ ^ ~ ^ ~ ~ ~ ~ ~ ~ ~ U ~ U G D D ",
"h x h h h x h x h h x h h h x 6 & e j r - * 9 - r r 9 2 ) ,.] C r e 9 7 - c a q 4 d U U Y U U ~ U U U ~ ~ U U U H U L L J D D D ",
"h h h x h h h h h h h h h h e 6 - r P r 7 - & - e - % # - ..,.) c r 9 e 7 c r 0 4 ~ U G U G U G U U U D U D J D G D D D D D D D ",
"r h h h a a a a h h h a a a a = e c j a 2 4 % - = # 6 7 * 6 x I j j e 7 6 j e 7 - D Y D D D D D D D D D D D D D D D D D D D h D ",
"a a a h a a a a a r a a r j P - - j 9 % 4 0 % # # * 6 j T C j j x c j e 6 r t 7 9 k G c D D D D D D D D D D D D g D f D h D D f ",
"r r r r r r a a r r r r r U ` l x j q 2 y q % % - 6 * 7 #.d.d.,.Q c r e 7 r 7 7 a e T c x D l D l D l D D l l D l h D D D h s h ",
"r r r r r r e a r r r r r r 9 4 j i 2 a s 5 2 % & 4 6 * a ] ,.X.) P j a 7 i r 7 - 9 Q c j j j l h l l h l l l l h D h h s h D h ",
"r e r r r r e r e r r e r * - 9 e * 9 j f f 4 9 2 - % % - 4 9 c T c j r 7 j 7 7 - j l c j k j j s l s l l h h l l h l h h h h h ",
"e e r e e r r e r e e w 9 * 4 9 q & 9 r C B 0 w 9 9 * % 2 0 a c j q 9 7 6 i r 9 9 9 r P c r a a a a h h h s d a d d d a h s a d ",
"e e e e e e r e e e e r 4 & q 0 r e e a H B r c j 9 # * - 9 i j r r 9 7 7 q 7 0 & & r l ` h r r a a a a a a a a a a r a a a a r ",
"e e e e e e e e e e e e 4 - C C a r 0 r H k i P l < * % 9 9 e e r i r 9 7 e 0 7 9 & 7 r c c e r q w w r r r q r a w r r q r r q ",
"q q e q 8 e e e 9 e 9 e - # q C 0 9 q e a a d k a 9 9 9 % < 9 d q i w 9 w 0 2 9 9 = % % c T r e q q e e e r e 9 q q w e e q e e ",
"q 2 e 8 e 8 e 8 9 9 9 h & - r z 9 9 8 q - % 9 a a 0 e 9 % - 2 i d d w 0 d w 9 9 r - o O C I l 9 9 9 q 9 9 9 w 9 0 q 9 9 0 0 0 9 ",
"2 e 8 q 8 q 8 8 9 9 z P w z N 5 - 2 8 8 - * 9 h w 9 9 # % 9 w e r i t < w w 8 0 d r o # - c C 9 4 9 9 9 9 9 9 9 4 9 9 9 9 9 8 9 ",
"8 8 q 2 8 2 q 8 8 7 P f w Y K 0 9 8 8 8 - * 9 l i q c j r z T ) C i 7 < w w q 9 k d 2 # # Z C w 4 9 8 9 9 8 9 9 8 9 2 9 8 9 9 8 ",
"8 8 8 2 8 8 2 8 8 8 9 # $ N t - 8 8 - 2 - & e h r = r z c c U U P r < 4 i r q 9 k c 0 % # S b j 2 2 9 - 7 7 7 7 < 7 - 6 6 7 6 < ",
"8 8 2 2 2 2 2 2 8 - - o $ M : = 9 - 8 8 - - 9 9 9 - - 9 9 w z ~ P 0 > 4 0 5 9 e r Y d 4 < A b 0 2 2 6 9 6 7 - 6 6 6 6 6 - - 6 - ",
"2 8 2 2 2 2 2 2 2 8 4 # o m > 4 9 6 6 - - < q c q 7 7 r j r l D c 0 y 5 5 4 4 w r C N 5 y v n 0 - 7 - 8 6 - 6 6 = 6 = 6 - - - - ",
"2 2 2 2 2 2 2 2 - 2 2 4 - u < 6 9 - - - 2 < r C i w 9 q a l l J c k H F s 5 4 0 r d w 5 p u b 3 9 6 9 - 6 - - = 6 = - - - = - * ",
"* * 8 2 2 - 2 8 - 8 9 8 6 2 # % 8 6 - - 6 - w z d d d 4 2 4 w q w g F D s 5 4 & 9 0 w 4 u u u 5 - 9 - < < 6 = = 6 = = - & - * - ",
"2 2 * 2 - 6 - 8 2 8 9 9 - * # % 6 - - - - 2 q a d w a 5 & & % 2 w 5 s s s w 4 = 9 5 i 1 w 4 4 5 < - - 6 6 < < - = - = * & - = * ",
"* 6 8 8 - - - 8 2 8 9 8 2 - # % - - - - - 4 r q a s 4 & & O O & 5 g g f g s 4 4 r 1 y < w - - 4 6 < < - > - - - = - = = * = = * ",
"* * 2 2 2 - 6 - - 8 9 8 2 2 O = - - * * - r f 5 d H g 5 > & & O 4 f f s s s 4 4 q 5 y 4 5 - - 4 < < < < - = = = = = = * , $ = = ",
"8 - - 2 w 4 < 9 - 2 0 2 2 - o % * - * - w s g s w H J F 3 2 > > 3 s s g F g 4 O w w w 1 < < - - < < 7 < , = , , , : = = = = $ : ",
"- - - - 5 - - 2 8 2 9 2 9 & % - - - - 6 d f g c s s H J D 3 2 2 w f B z B g 3 & y t 1 < = - > = < < , < , - - = , : $ = = : $ = ",
"- - - - - 2 - 4 4 2 9 9 - - - - - * * 5 z f f F f 3 w H J F w 4 w l f f f s > & i y 1 * - = = > , , , , , , , : , , : = : : : : ",
"* - * 8 - 2 4 2 2 4 8 8 - - 8 - - & & 0 z f s g D 3 2 5 g f 3 4 5 3 2 3 w 5 % $ y t 5 * % = % = , , = , , , , : : : = : : : $ $ ",
"* - - 9 4 - 9 7 4 9 - - 6 6 9 6 - - - 9 d f s s g w 3 4 w 5 5 = # o o O 5 > % > t t 0 = $ > = : : > > : : : : : : = @ : $ = @ : ",
"* & - 9 9 - 9 9 - 8 - - - 9 6 - 6 - - - 5 r f s g s 4 4 5 4 - # o o o O 4 & 4 5 3 t 1 > @ = $ : : : : : : : : : ; : : : : : : @ ",
"- * - 9 9 4 9 q 9 - - - 6 9 9 - * - & = < w d w s s 4 % 5 4 * @ # o o = < < 5 5 3 i < $ $ : = : : : : $ : : : : : : : $ @ = @ $ ",
"- - - 9 6 9 9 9 9 - 8 7 - 7 9 7 * - * & - 5 y w w r 5 # & - + @ o # o > & 3 5 5 t i , # @ $ $ $ O = : O ; ; ; O ; , ; : ; ; @ p ",
"6 - 9 8 - - - 6 7 - 7 7 6 7 9 u 9 7 < = 4 0 w w 5 w y 4 % # + # . # # = > 4 4 3 3 t = @ o @ @ @ $ @ : ; O ; ; ; : ; ; ; ; : X R ",
"* * 8 - 6 - - - - - - 7 7 9 < 0 9 1 q > 4 w w 0 4 5 w 4 % # + + + . # & = & = > = 5 @ @ @ @ @ @ . @ @ @ O ; ; ; X ; X X ; @ X Z ",
"# * & - 6 - * - 6 * * - < 6 7 9 w - 4 > - % - 0 w w 5 # + + + + + + % # # O O & 1 t @ . . . @ @ @ @ @ @ ; ; ; ; X X X X X X X : ",
"+ # * * * * * - - - # * 6 , 7 9 d 4 > & % O % % & 4 4 # # % + +   + % # O # > 1 t i @ . @ . @ . @ @ @ @ O X ; X X X X X X X X X "
};
