/* XPM */
static char *_2040_6052b3097d7d175a7de232886bb807d2bf6c8b6adc4c490cb5c6ff0d372cd3cd[] = {
/* columns rows colors chars-per-pixel */
"64 64 235 2 ",
"   c #08060A",
".  c #0D0C13",
"X  c #120E10",
"o  c #151315",
"O  c #1B1514",
"+  c #1E1916",
"@  c #14141B",
"#  c #16181D",
"$  c #1C1C1C",
"%  c #251815",
"&  c #241916",
"*  c #221D1B",
"=  c #2C1E1B",
"-  c #311E1A",
";  c #1E201F",
":  c #22211D",
">  c #2D221E",
",  c #33231D",
"<  c #3C251C",
"1  c #1C1D23",
"2  c #191B25",
"3  c #221F25",
"4  c #1E2323",
"5  c #1D2528",
"6  c #1F2330",
"7  c #222423",
"8  c #2C2423",
"9  c #232926",
"0  c #2E2926",
"q  c #23252A",
"w  c #2B262A",
"e  c #232A2B",
"r  c #2C2C2C",
"t  c #332623",
"y  c #3A2623",
"u  c #332925",
"i  c #3B2B24",
"p  c #322D2A",
"a  c #392E2A",
"s  c #2F302E",
"d  c #33312E",
"f  c #3B312C",
"g  c #252D31",
"h  c #2B2D32",
"j  c #272B38",
"k  c #322E35",
"l  c #263032",
"z  c #2B3235",
"x  c #2D363A",
"c  c #2E393A",
"v  c #353532",
"b  c #393634",
"n  c #3A3936",
"m  c #33343A",
"M  c #3A373D",
"N  c #333A3D",
"B  c #3C3C3A",
"V  c #49311E",
"C  c #442C25",
"Z  c #46322D",
"A  c #543428",
"S  c #57342C",
"D  c #433A37",
"F  c #693D30",
"G  c #3F403B",
"H  c #41413E",
"J  c #4C403B",
"K  c #53433F",
"L  c #774F2A",
"P  c #7C483A",
"I  c #2C3343",
"U  c #2B3744",
"Y  c #353643",
"T  c #343D42",
"R  c #3B3D42",
"E  c #353B4D",
"W  c #3B3D4B",
"Q  c #383E53",
"!  c #413E46",
"~  c #364145",
"^  c #3B4245",
"/  c #36414A",
"(  c #3B454A",
")  c #3E484D",
"_  c #3B4755",
"`  c #3F4B61",
"'  c #444443",
"]  c #4B4644",
"[  c #484845",
"{  c #4B4945",
"}  c #42444B",
"|  c #434A4E",
" . c #4B4C4B",
".. c #574B49",
"X. c #534C4A",
"o. c #52524E",
"O. c #5A514D",
"+. c #434553",
"@. c #434D53",
"#. c #4A4D52",
"$. c #454C5C",
"%. c #4A4B5A",
"&. c #465156",
"*. c #4C5155",
"=. c #44525B",
"-. c #4C555B",
";. c #4E595D",
":. c #515051",
">. c #535453",
",. c #5B5554",
"<. c #575856",
"1. c #5A5955",
"2. c #52555A",
"3. c #54595D",
"4. c #5B5C5B",
"5. c #6E4F45",
"6. c #665958",
"7. c #635D5C",
"8. c #5F605D",
"9. c #64625E",
"0. c #484E62",
"q. c #4C5464",
"w. c #4C5965",
"e. c #495568",
"r. c #4D5C6C",
"t. c #525566",
"y. c #545D63",
"u. c #5A5D62",
"i. c #525C6B",
"p. c #4E5F77",
"a. c #545C73",
"s. c #575F7A",
"d. c #645E61",
"f. c #5D6266",
"g. c #586369",
"h. c #5D646A",
"j. c #4E6672",
"k. c #586577",
"l. c #646463",
"z. c #6A6665",
"x. c #62656B",
"c. c #656A6D",
"v. c #6B6C6B",
"b. c #776967",
"n. c #6E706F",
"m. c #757269",
"M. c #636D75",
"N. c #6B6D72",
"B. c #6D7175",
"V. c #687679",
"C. c #737474",
"Z. c #797676",
"A. c #72757A",
"S. c #75797D",
"D. c #7B7C7C",
"F. c #854F3E",
"G. c #8F5B4D",
"H. c #A56C5A",
"J. c #8E7466",
"K. c #88746A",
"L. c #857B79",
"P. c #AD7764",
"I. c #C17C63",
"U. c #7E806F",
"Y. c #8C847D",
"T. c #B28670",
"R. c #CE977D",
"E. c #5A6983",
"W. c #616E87",
"Q. c #647689",
"!. c #747C84",
"~. c #7B7D82",
"^. c #687A99",
"/. c #6B7FA1",
"(. c #7E8185",
"). c #788B8E",
"_. c #6F8593",
"`. c #758497",
"'. c #768AA7",
"]. c #7D93A7",
"[. c #778DB0",
"{. c #838485",
"}. c #8B8483",
"|. c #83858A",
" X c #86898C",
".X c #8B8B8C",
"XX c #968E8B",
"oX c #838C91",
"OX c #8B8D91",
"+X c #8E9195",
"@X c #87949C",
"#X c #929394",
"$X c #989694",
"%X c #94969A",
"&X c #96999C",
"*X c #9A9C9D",
"=X c #A79793",
"-X c #8191A7",
";X c #9C93A3",
":X c #9B9DA1",
">X c #8399BC",
",X c #A09FA0",
"<X c #9EA1A4",
"1X c #97A6AD",
"2X c #A1A4A5",
"3X c #AAA7A6",
"4X c #A3A6A9",
"5X c #A6A9AC",
"6X c #A9ACAD",
"7X c #ACB0AF",
"8X c #ABAEB1",
"9X c #AEB1B4",
"0X c #A9B8B8",
"qX c #B2B4B6",
"wX c #BEB9B5",
"eX c #B3B6BA",
"rX c #B6B9BC",
"tX c #BABBBD",
"yX c #CC9B82",
"uX c #D4AD95",
"iX c #F4B999",
"pX c #CCBABA",
"aX c #E3BFAB",
"sX c #F1C7AC",
"dX c #879EC1",
"fX c #8DA5C7",
"gX c #93A9CB",
"hX c #9CB2D7",
"jX c #BCBEC1",
"kX c #A3B6D6",
"lX c #BEC0C2",
"zX c #B0C9C3",
"xX c #C2C3C5",
"cX c #C6C4C4",
"vX c #D4CFCD",
/* pixels */
"N.N.N.A.A.Z.~.~.~.~.(.}.|.|.OXOX#X#X$X:X:X,X2X5X5X5X6X9XqXjX9X8XkXeXjXjXxXxXxXxXxXxXxXxXcXxXxXcXcXxXxXxXlXlXlXlXtXtXeXrXqX9X7X6X",
"v.N.N.N.B.!.A.~.~.D.(.(.|.|.}..XOX#X%X$X*X,X:X2X5X5X6X6X8XqXjXjXeXeXjXjXjXxXxXxXlXlXxXxXxXxXcXxXxXlXlXlXlXtXtXtXtXrXwXqXqXqX6X6X",
"x.c.N.N.N.N.N.!.!.~.~.D.(.|. X}..XOX#X#X%X*X:X,X,X4X5X3X8X9X9XeXeXeXrXjXjXjXjXjXjXjXjXjXxXxXlXxXlXjXlXlXtXtXtXtXeXeXqX7X8X5X3X5X",
"x.x.c.v.N.N.N.B.N.A.A.~.~.(.|.|.|..XOX#X#X$X&X:X:X,X3X5X3X3X;X=XXXXX3XjXjXjXjXjXtXtXjXjXjXjXjXjXjXjXjXtXtXwXeXeXqXqX7X7X6X5X3X3X",
"f.x.x.c.x.N.N.N.N.A.C.!.~.D.(.(.{.|..X.X+X%X%X%X:X:X<X2X,X=XXXXXY.L.L.8XjXjXjXgXjXeXeXjXtXtXtXtXrXrXrXrXrXqX9XqXqX9X6X5X3X4X,X:X",
"u.u.u.x.x.x.v.N.N.N.N.A.!.A.~.L.{.|.|.oXOXOX+X%X%X:X:X:X}.L.L.L.K.b.z.{.8XjXeXeXeXeXeXrXrXeXeXeXeXeXrXqX0XqX9X9X6X6X5X5X,X,X:X:X",
"u.u.u.d.f.x.x.x.N.N.N.N.N.!.!.~.~.~.(.|.|.oXOXOX%X%X;X+XZ.b.b.K.K.b.d.c.9XqXeXqXeX9XeXqXqXqXeXqXqXqXqX9XqX7X7X7X6X5X4X2X:X:X&X$X",
"t.<.u.u.u.u.x.x.x.x.N.N.N.N.A.A.!.~.~.~.|. X XOXOX+X%XD.z.K.K.K.b.6...g.jX8X9X9XqX9X9X6X6XqXqX8X9X7X7X7X7X6X5X5X4X4X2X:X*X$X%X%X",
"2.2.3.u.u.u.u.u.d.x.c.c.N.N.B.A.A.S.~.(.~.(.|.oXOXOX+Xz.6.b.b.d.6.O.D o.zX5X7X0X6X+X2.>.D 8X8X8X6X6X6X7X6X5X5X<X<X<X,X&X&X$X#X.X",
"*.2.2.2.t.<.u.u.d.a.h.c.c.c.N.N.B.B.A.S.~.(.(.(.|.|.OXt.! ..6.6.5.K D [ zX&X XU.3.G >.1.! 8X5X5X5X5X5X1X<X<X<X<X*X*X&X$X#X.X.X.X",
"*.*.2.2.2.2.3.u.t.u.u.h.u.M.M.c.N.B.C.C.S.!.~.~.(.|.|.z.! 6.5.H.P.H.F.J.0XG b O.m.U.b H n.5X4X4X<X<X<X<X<X<X*X*X*X$X#X#XOX.X.XY.",
"#.#.#.#.>.2.<.t.u.t.u.y.y.h.h.x.c.c.V.V.V.S.S.D.~.~.(.6.Z 5.K G.H.L C J.b.m.U.m.J u {.*X:X4X1X<X<X<X:X<X*X&X&X$X#X#X.X.X.X X|.U.",
" . .%.%.:.*.2.2.2.2.y.y.y.f.g.h.h.c.c.V.B.B.A.A.!.~.~.Z.5.P.P.C H.P A H.iXuXR.T.Y.O.&X:X:X:X:X:X<X*X*X&X&X#X#X#XXX.X X XY.(.(.D.",
"}  .}  .#.#.#.*.-.2.-.2.u.i.y.f.g.g.h.c.M.N.A.!.!.!.!.~.K.J.I.uXpX;X=XsXsXaXT.K K 9.%X&X%X%X%X%X&X@X%X+X+XXXOX.X X|.|.(.U.(.D.C.",
"} } } #.| #.#.#.#.-.-.-.;.3.y.y.8.g.h.h.h.M.-XdX>X-X!.!.^.!.hXhXkXx.iXiXsXuXF.P.L *X%X+X@X+X%X@X#XOXOXOX.X.X.X{.{.{.Y.U.Z.Z.C.C.",
"! } } } } | | | #.#.*.*.-.-.;.;.;.g.f.g.f._.dXfXgXgXdXfXhXgXgXfXgXb.iXiXaXT.R.R.L 5.OXOXOXOXOXOXOXoX.X X|.{.{.{.(.U.Z.D.Z.C.C.n.",
"R ' } ' ( } } | | #.&.#.&.&.-.-.;.3.;.g.8.'.fXfXgXhXhXgXdXgX>X[.dX! yXyXR.iXR.F F.K.). X X X X). X(.{.{.{.U.~.D.D.D.Z.C.C.m.v.v.",
"R R R ^ R } ' } ( | | | &.&.&.-.-.;.;.8.w.'.].fXfXgXfXdX>XdX>X/./.M.C F S yXP.G.F Z.(.(.(.(.{.(.U.).(.U.D.D.D.D.C.C.n.n.v.v.v.9.",
"N R R R R ^ R ( ( ' | ) | @.&.&.&.-.&.3.` _.[.fX[.>X>X[.[.[.^.E.0.%.j @ X S F.F.5.(.~.~.(.(.U.(.U.S.~.S.Z.Z.C.C.C.C.v.v.v.l.9.9.",
"B N N R R R R R ^ ^ ( ( | | | @.#.&.&.-.w.p._.[././.^.^.p.` Q I 6 2 ! k . Z S A M.oXA.A.S.S.A.A.!.C.C.C.C.n.n.v.v.v.v.l.9.9.8.8.",
"v N N N R R R M R ^ ^ / ( ) ) ) &.&.&.;.` ( j.p.e.Q ` Q I j 3 3 w ! Y 0.0.k = w '.-X1XA.B.B.B.B.N.B.n.n.v.v.v.v.z.c.l.8.8.8.4.4.",
"v m m n N N M T R R G ~ ( ) ( ( ) ) ) ) &.&.U U E j 6 6 2 3 Z =XsX! Q Q E m w k -X-X'.].N.n.n.N.c.c.v.l.v.l.l.l.l.9.8.8.8.4.1.>.",
"m x v x m m N N N M N T ~ ^ ~ / ~ ) ) ) ) _ / j j 2 3 k w - = y Z ! 6 E Q $.Y h M.`.!.].C.c.x.c.c.x.l.l.f.l.9.f.8.8.8.<.1.1.>.>.",
"z s z v z m m m m N N N T ~ ~ ~ ~ ~ ) ) ) _ ` / I I m ! D y C y 3 2 . 6 Y 0.q.s m ].'.!.).h.8.g.f.8.f.8.8.8.4.4.8.<.1.1.1.1.o.o.",
"s z v h h z m z m m m N N N ~ ~ ~ ~ ~ ~ ~ / w.` U U ~ ) p : t p ! 2 @ 6 I I 0.0.k g.]._.).u.8.3.8.8.8.8.<.8.<.8.1.>.>.1.o.o.o.o.",
"r h h r v z z v z x x x c N N G G ~ ~ ~ ~ ~ =.j.` U n >.3 7 $ w R 2 . . j I E ! M M V.V.).3.4.4.-.-.>.<.>.<.o.<.>.o.o.o.o.{ o.H ",
"e r r r g h h z h m x x N c c c c U G ~ ~ ~ =.E.Q.E.H ] 8 3 : b k @ . . 2 6 j 6 k h M M._.>.>.*.<.>.>.*.>.o.o.o.o. .o. .{ o.{ H ",
"r r r r r g r l h h z z x c c c c c c G ~ ~ =.E.E.Q.m.O.7 8 8 B k 2 . .   6 I j h k s 2.V.o.*.o.&.o.o.&.o.o. . .[  .{ [ H H o.H ",
"q e w e r r r r r g z z z x c c c c c c G c _ j.k.Q.*XvX..p > b b @       2 j k Y +.m ! M. .#.o.o. . . . . . .{ { { J H H H H H ",
"9 w e w e e e r r g h l z l z x l c c c c c / e.r.k.7.qX4.X.p a Z @       X j q q h Y k g. .[  .[  . . .[  .[ [ H H H H H H H H ",
"w 7 w 9 e e w r g g g l l z z z c c c c c c _ e.j.k.X.vX7.,.X...M q       @ @ 2 w h } r ~  .' [ [ [ [ [  .[ { H [ H G H G G H H ",
"9 9 9 w e w e e r e g l l l l z l l l c l c _ ` r.a.{ cX,.,.X.7.<.Y 2     5 Y @ j W m r v H ' ' ' [ ^ ' G [ H H H H G G G G G G ",
"7 9 7 9 9 9 e e l e l l l l l l l l l G G l ` r.r.g.J cXX.X.] 7.x.Y w 2 @ 1 &.r 5 7 7 k k D ' H H H ' H H G G G G G G n n n n b ",
"7 7 7 7 7 w e e 9 e 5 e l l l l l l l l l G w.=.y.-.X.pX .] D 7.%.Y k j j 1 ^ B 9 o : 8 B ' G H G ^ D H G G G G n G n G n b b v ",
"7 7 7 9 9 7 9 9 9 e e l 5 l e l l l l l l ~ w.w.w.q...3XX.X.] <.E k h k _ / N B G n z n M B G G G B G G G b G b G n n n b b v v ",
"7 7 7 7 7 q 9 9 9 9 5 l 5 l l l l l l l l _ r.w.w.i...cX,.,.X.u.W Y k k 0.=.B n n n v G B B B n n B n B G G v G v n v v v b d d ",
": 7 7 7 5 9 5 9 9 e 5 e e e l l l l l l l ` ;.w.k.N.z.wX6.,.7.<.+.W Y Y e.j.n n v v v n v v G d B n n b n b v b d G G d d G d 0 ",
"4 7 4 7 ; 9 9 5 9 5 5 l l 5 e e l l l g l =.g.w.k.M.$X}.z.d.7.2.0.$.+.E _ j.N v v v n v v G d G n n b v v b G b G d d d d d d d ",
"7 7 7 4 9 9 9 e 5 e 5 l l l l l l l g l l / @.j.k.u.vXL.z.z.7.X.i.q.$.+./ &.G v c v z G v v G s m n n n n v b v d d G d d d d d ",
"; $ 4 4 ; 5 5 5 e 5 9 5 5 e 5 e 5 5 l 5 5 G ^ w.h.v.vXv.d.7.d.:.a.%.( v r N | s d d d v v v d d d d d v v v v v d d d d f d d 0 ",
"$ 4 4 ; 4 ; 7 7 4 9 9 9 9 9 e e l e e l 9 =.;.;.f.Y.}.z.,.1.,.v.t.+.+.W m N ) d s d d v d G s G b d b d v v v v d d d d d d d 0 ",
"; ; ; $ ; 4 7 4 9 4 9 9 9 9 9 l l 5 e e l =.;.=.>.$Xo.] ] ,.X.D.%.! +.+.@._ $.s s d d s d d d d v n d v d d d d d d d d 0 d d 0 ",
"$ ; ; 7 7 $ 9 7 9 9 9 9 9 9 9 9 5 e 5 l G ;.=.G C.*XB r d 0 Y OXq.0.0.$.$.=.w.d s s s d d d d d d d v d d d d d d d d d d d 0 0 ",
"$ ; ; ; 7 7 7 7 9 9 9 L 9 9 l 9 l 5 e l =.j.G ) wX!.i.$.+.$.0.:Xs.t.,.q.q.w.r.z s s s s d d d d d d f d d d d f d s s d 0 0 u d ",
"$ $ ; 4 * 7 7 1 4 9 9 9 9 5 e 9 e 9 5 l ~ l 5 c (.w.j.q.t.t.a.0.+.} +.! %.0.v s 0 s 0 d s d d d d d d d d d f d d d p d d 0 d 0 ",
"; $ $ ; 4 7 : 7 ; 4 4 4 5 e 5 9 e 9 9 l l 5 l w.g.i.r.0.0.0.a.E.i.h Y t.Q.^.j.s s 0 d d 0 s d p d p p d d d d p u d 0 0 0 u d 0 ",
"$ $ ; $ $ 7 4 i 9 ; 4 9 9 5 5 9 5 9 9 c =.G ;.g.w.r.a.w.0.0.e.s.s.E.W./._.E.Q.s d d d d d d 0 d p p p p p f f d 0 d p p 0 0 0 u ",
"$ $ $ $ 4 7 ; 7 9 4 9 9 5 5 5 5 5 5 9 ) =.=.=.&.$.=.0.0.t.a.a.a.s.E.E.W.Q.W._.| 0 0 d 0 s d d p d p d f p f p p p p 0 d p d 0 0 ",
"; $ $ 4 7 7 : 7 7 7 4 ; 4 4 4 4 4 9 x _ @.) =.q.=._ / $.q.a.i.a.a.a.s.k.E.k.Q.k.p r p d p p p d p p p d d a k p p p p 0 p 0 0 t ",
"$ : $ ; $ : 7 : 4 * 7 4 7 4 9 4 4 4 ~ _ ) ) / / _ $._ e.a.s.t.e.a.s.a.a.i.k.M.!.v 0 0 0 p p p p p p d f d a a p p p p p 0 0 p 0 ",
": * : : : 8 : : * * 4 7 7 4 4 7 4 e ~ ( ) ) ~ x w # @ @ q Q $._ 0.0.t.t.i.k.k.k.) r 0 0 0 p p 0 p p p p d d p a p p u 0 0 0 0 0 ",
": * : : : 7 8 : 7 7 4 ; 4 7 4 ; 7 c ~ / ) / c l 9 # $     @ h / Q Q %.0.t.0.t.a.;.0 0 0 0 0 p 0 0 p p p p a p a p p y p u 0 8 t ",
"7 : 7 : 8 7 7 8 7 : 7 7 7 7 7 : 7 c T U T x h r q 1 O   o : X 6 Q E Q t.%.%.2.u.;.0 0 u 0 p 0 0 p 0 p p p f p a a u y u u u 8 8 ",
", > , : 8 7 7 0 8 9 p 0 0 7 7 7 9 U x T x g g e t $ o O ; : ; + j I W 0.%.%.+.%.g.z r 0 p 0 p p p p p p a a p p a a w 8 8 8 8 8 ",
"0 u 8 i p 8 7 8 0 0 0 0 0 0 0 8 e x x x h 4 $ $ + + J : : : : ; @ I Y +.+.%.+.} -.} p u u p p p p p a d a a a f p u y k 8 8 8 = ",
"t 0 w 0 t p 0 9 0 p p r 0 9 8 0 6 j j h 7 # $ $ $ : V : : : : ; $ 3 I I %.+.} R | -.0 0 0 p 0 p p p p i a a a i a u w y t 3 = = ",
"p f Z f 0 t 0 8 : s p f Z 0 0 7 q g q 7 1 + # $ ; : : ; ; = : : * 2 j j W W ! ! ! #.b 0 8 t 0 u a a p k a y a u w y t y 8 8 = * ",
"i i u 0 t 0 u 0 > 0 0 d 0 f 0 9 4 q 7 1 * $ + * ; ; : ; : : : * : + 4 j k } +.! ! } | t 8 0 0 u t u u y y u u y u w 8 y - 8 = = ",
"f i i t , 8 0 t 0 i u , Z a t 9 w q 4 $ $ + # + * + ; * : : : * * + = q w Y } R R M *.Z , 8 > t t t u y w y 0 t 8 8 t t - - = = ",
"> , A u > t > t < u , p C Z i 1 q 7 * $ # = = = : : * * * + 7 + + + + # q j ! R M M M } > 8 > , , > 8 u y w t t - t - - = - - t ",
"u 0 i i 8 y , 8 C < C t t a t 2 1 : + $ O % V % = * * & + + & + + * * @ 2 1 k R m k D ! f > > , , t t t y = 8 - , y , y = = - - ",
", , p , 3 8 > 8 = < L C t i y $ # $ @ + O V V , = & & + O & + + * & & & o 2 3 m m u a m d - , , t i t > 8 < t = , , , < = = = = ",
"> > i , t 8 t t = < t C = y A % # o @ O + n V > % O o O O o + + O & & & O @ @ 7 w w 0 d b , < , , , > = = = = % = = = - C % % % ",
": , i i 8 > = 8 - , 8 - y A y o o & O o 4 z C < % % O O o O O + O O O % % X @ o w 8 : * p > = - , > , = = = - = = , - = y - = - "
};
