/* XPM */
static char *_580714284347[] = {
/* columns rows colors chars-per-pixel */
"64 64 134 2 ",
"   c #1F130F",
".  c #220E0A",
"X  c #24130D",
"o  c #2A160E",
"O  c #2E180F",
"+  c #251713",
"@  c #2A1611",
"#  c #271811",
"$  c #2D1A13",
"%  c #2E1E19",
"&  c #331D15",
"*  c #381E15",
"=  c #321F19",
"-  c #362016",
";  c #3A2216",
":  c #35221B",
">  c #3B251C",
",  c #3D291E",
"<  c #342521",
"1  c #3A2720",
"2  c #3E2A22",
"3  c #412616",
"4  c #40261B",
"5  c #422A1D",
"6  c #4A2F1F",
"7  c #51311C",
"8  c #432D24",
"9  c #492F24",
"0  c #432E28",
"q  c #482F28",
"w  c #453126",
"e  c #4B3225",
"r  c #46322A",
"t  c #4B352B",
"y  c #4F392C",
"u  c #533520",
"i  c #593723",
"p  c #5C3B27",
"a  c #513729",
"s  c #533A2C",
"d  c #5A3D2D",
"f  c #4C3731",
"g  c #4D3932",
"h  c #543D33",
"j  c #593E32",
"k  c #513E39",
"l  c #57412D",
"z  c #5F422F",
"x  c #564036",
"c  c #5B4235",
"v  c #54413A",
"b  c #5C443A",
"n  c #5D483D",
"m  c #66432F",
"M  c #6A432D",
"N  c #624535",
"B  c #654836",
"V  c #614639",
"C  c #644A3C",
"Z  c #6B4E3C",
"A  c #724B35",
"S  c #6D503E",
"D  c #73533D",
"F  c #594641",
"G  c #5E4941",
"H  c #604741",
"J  c #644D42",
"K  c #6A4F41",
"L  c #675146",
"P  c #6C5243",
"I  c #6C554B",
"U  c #735544",
"Y  c #765946",
"T  c #7C5A44",
"R  c #715649",
"E  c #755B4B",
"W  c #7A5D4B",
"Q  c #705750",
"!  c #745D52",
"~  c #7A5E51",
"^  c #7D614E",
"/  c #766053",
"(  c #7D6252",
")  c #7D6559",
"_  c #7E685E",
"`  c #825B44",
"'  c #815E49",
"]  c #83624E",
"[  c #826553",
"{  c #886650",
"}  c #866855",
"|  c #8C6B55",
" . c #81665A",
".. c #856A5B",
"X. c #8B6D5A",
"o. c #916B56",
"O. c #916F59",
"+. c #8E725E",
"@. c #92735D",
"#. c #98745C",
"$. c #95785E",
"%. c #836E65",
"&. c #896E61",
"*. c #867065",
"=. c #8E7362",
"-. c #8E7469",
";. c #937564",
":. c #997763",
">. c #967A65",
",. c #9B7B65",
"<. c #927769",
"1. c #94796A",
"2. c #9B7C6A",
"3. c #A17E69",
"4. c #9D816C",
"5. c #9B8175",
"6. c #98837B",
"7. c #A3826D",
"8. c #AB876F",
"9. c #A38572",
"0. c #A68A75",
"q. c #AA8A75",
"w. c #A5897A",
"e. c #AC8E7B",
"r. c #B2947C",
"t. c #B9967F",
"y. c #A48B82",
"u. c #AE9283",
"i. c #B59582",
"p. c #BB9A84",
"a. c #B0968B",
"s. c #BE9D88",
"d. c #C09D85",
"f. c #C2A08B",
/* pixels */
"X.B j h g t % X % r A A A ] ] #.$.4.+.n s y t r 8 e &.r.+.X.D e u 8 * g 2 0 h f q = * > 9 8 q q s V A 3.P K } U ~ ;.[ ;.0.3.` U ",
"[ d b a h g : X # t A D { o.,.7.>.=.*.c x s g t 0 e / <.( W B 8 , e e j 0 < t 0 0 8 1 * 8 q j j e j a I e d V d C ~ ~ o.&.~ X.~ ",
"V C j 9 n n - X $ r 4.+.| :.3.{ 2.^ c s x x n g 8 > b ( C C k = ; e 0 h r ; r f f f 8 ; b H H H h K j j 9 t a a V ~ } Y o.J c j ",
"h f j C h g $ % , L >.) } X.1.o.X.^ l l s x x f 9 ; s E K H H g h b a s 0 0 0 f f e 8 9 j ..! I J J J H C C b x b V J p i q a j ",
"0 0 g H v t - X : R R R y.u.<.O.<.( P a 9 8 r q > O 8 c x t r 2 e w w t 9 w 2 : : 0 8 a J G F n J j b j v h g x 7 n x d 7 p f h ",
"g g v g h 8 : O > f j J K %._ W E J Z e t q f 0 5 O > h t > < 2 > $ > 2 > ; & # : , > t 2 2 f n G b k f r 1 , w , , 2 r 7 F g f ",
"% < < % : = O @ & 8 0 w f b k k h a Z t y 9 * 8 8 & 3 8 w f v F v f r > : : = # % # : 1 2 2 2 y f 8 = * : & & - O O : = $ & = % ",
"    + + # X @ O o + # # % : 2 0 c J I h e q 0 * 8 = > 2 r g g f g r w 0 r 0 > : : : 1 < 1 2 2 w 8 8 1 2 # % % @ # $ $ X $ X . X ",
"% + % # # = @ @ & X o # $ : 1 2 x b C y 8 , 8 1 8 * 8 q q k k r r w 2 f r w > % $ % : > - w 2 2 8 2 * ; : : * = : % > : : # # % ",
"k r t 0 * ; - & * * O @ % : < 1 e h c e 9 0 8 0 * * e 9 q v 0 : 2 1 : , , w , - > , - > & ; 2 2 , 0 > > : : 0 8 w 2 r *.G f f r ",
"L s e C 0 & % & * & & O : 2 > > 5 a c c s 9 8 q = = 3 8 q 8 * * - - - - ; 2 5 > , , - > - & , > , * , 0 0 8 f f J I ! =.(  .>.[ ",
"P e 9 b h w $ # = & ; > > 2 2 1 5 e z e 5 e r 1 & & 8 9 9 * * 4 - - - - w l y y C C , ; ; - w x h s V /  .R  .} &.-.) I ( 6.a.1.",
"[ K s b g t : > - & 8 a n C n y V a 9 5 ; 3 > 0 = O 5 b j V V V a 6 w e c l x s l Z y 5 ; - y P W D ( ^  .U R ..<.2.W B } 1.w./ ",
"Y a j V x h % : # o - s s P C C C s e 8 * = 9 2 > = 8 s [ [ X.&.) / L b L B P c S S l u ; 6 x P W W { [ Y K C Y } [ W =.9.2.P X.",
"N j J V v g > : & ; - y l R Y R P J j j y b f q r 0 9 b ;.} [ D } >...^ E P n C n n y e B P P R ^ | ] ] Y W N z P Y ..=.R B h s ",
"s 9 h V L J r 2 , > , s S U ^ ^ ~ .._ ! ! b r r t 0 e C ..[ X.[ +.,.>.+.<.( c x l 2 2 w Z n S ^ W @.D W } ;.B C i c T c e a 9 e ",
"9 j H I G F r 8 2 2 , x ^ P U / ^ =.} ( ^ ) l r t w 6 S E U D | ;.} [ } ;._ v r 2 > > , a e V E W +.D E ....K 6 3 C c e e a 5 ; ",
"q j H Q j f 2 0 2 2 , 6 C Z E ^ S ( ^ E L I v l a 5 w E R X.} W W [ @.X.[ ) v 2 1 > : 2 c c V ;.X.E P L E I c e , c a 5 > > e e ",
"8 q H ..G 0 2 0 w - - , e l U D Z D U I n L v r y , e <.;.W A S ` [ | X.q.*.b % % % 2 2 c c R ^ ( C B n ! K h t 5 e 5 ; ; 8 h h ",
"q 8 j J b 0 1 : ; & - , e l ^ / C / E S l n x l s 5 e w.>.] e.| A W S W ( I g = % < : > c d N E / P l s K V t * & & - 3 5 5 a h ",
"q 8 j V a r 1 > : > ; ; e y ^ } ) X.| ..n / x l s w a u.q.X.s.#.M ` O.[ ^ L r & $ $ & > y s C W E I e t C h q & & & - - ; 6 h a ",
"a 9 f j e f 1 2 : : - 5 s l ^ ^ } =.;.@.+.E L x s 6 d 0.i.X.p.3.A A  .} R c 0 # # # O ; e d I D v n e h t 0 1 $ = : - > a e h s ",
"q q 5 9 q , = 2 : , , y x x b S ..4.1.5.0.D n s e e e ;.@.[ p.8.` M | } P b 9 X X O - 5 s x h h t t r f r 0 & = = * 5 r a e y e ",
"8 q 8 8 8 , = 2 , - - : ; , 6 6 L ..Y } >.B z l i 5 s S A U ,.;.[ U U K d s > . X O & ; h g t e r r 1 0 1 q * = 2 0 8 r y e e r ",
"* > q q 8 > : r , : : > 5 5 5 3 a { ;.;.1.P c y 5 ; 7 7 T q.9.X.X.` K N 9 5 = X @ X * 3 a y y y t t 4 = * * = * > 8 8 8 8 9 q 8 ",
"h a j t w % : 2 1 , , > 5 e c C z R >.+.*.C c d 3 3 m D O.d.p.0.W U W ] i 3 & o X & O 9 5 > 5 8 q 8 = O @ & & & * * * > q q a 9 ",
"V k b k f > < 2 w 5 , > 5 5 a c E ( ^ E ( E C c 5 3 B } ] @.t.d.[ U W Y N B & . $ = & a a e 9 9 q q 8 4 8 9 * * 0 5 8 h C P &. .",
"R j h h t 1 > r r , ; , , ; 5 e c ( =.B W [ P d 6 i m l p U o.#.8.T ' [ ^ h = o X * 8 I :.O.E P J b s a 9 8 q a j b R ..=.W +.;.",
"R j h h t 8 > 2 r , - & , ; ; e a U >.Y ( ( T B B Y 7 7 7 O.#.3.q.2.C } ! f : # + 2 ) 6.[ X.U Y ] &.&.Z C V 9 e l l } 7.@.Y @.>.",
" .I j b g 2 r r , > - ; , 6 , a a C | Z ;.[ Z B S E T p M | t.3.' B j v g v < + < g y.-.2.;.} ` @.2.;.B c V 5 8 l ( 4.4.4.| +.S ",
":.Q a b 0 = f t w , - - 6 y e 5 5 d P W :.U R R X.Y D ^ ' @.O.' B j J t 2 g <   + r y.2.:.X.o.` X.2.X.! J j t r , ^ | 4.@.@.{ ^ ",
"K 4 * k 9 > v g w , - - u x w > e l W $.2.E &.[ Y Y } 9.7.;.O.D { ' b k r g %   % g 2.:.[ ;.T | [ 2.&.U j h q > > l q.q.| $.^ z ",
"i 8 * f 8 0 j f r = * 4 9 8 r w s c Z 9.K Z } R ] =.} #.w.3.' U X.B j h f f = X % r A M A ] [ ,.#.9...b a h e 0 8 e &.r.X.X.D e ",
"3 t r j 0 < e 0 0 q * * 8 t v x a j s K a j N d C ~ ! o.&.W X.W [ j V a f h : . o y A T { o.:.3.>.;.=.c h h g f 0 e ~ <.[ W C 8 ",
"; t e h 0 : r f f f 8 * c H G F s K b j 9 e a s V ~ ..U o.C c c V K s t G n = X % t 4.O.o.;.3.{ 2.^ c s j v F g 0 > c ( C C h = ",
"j v t s 9 0 0 f f f 9 9 j } / I J J J V V C v x b b C p i t t x f a j H h h @ % > J <.) } O.;.X.X.( l l s k j g 9 ; s E L H H t ",
"q 0 e y 8 e 2 : = q 8 a L G G F J j G h x h h h i b j d 7 p h f r 2 y H v r - X : I E R y.u.1.@.=.( S y w 8 t e > O 8 x h r 0 0 ",
"> $ > , , : $ # = 1 , q r 2 g v H j k f w , , r , 2 8 r 7 n g f g g v f h 8 - O > t h J L %.) E / Z Z w y e r 8 5 O > h y , > 0 ",
"v f r > : : = $ = $ * 1 1 2 1 l f 8 ; = - % & - o # : % @ : : % % < < : : - # # & 8 0 r t n v g x y Z t e e : 8 8 ; , 8 2 r k F ",
"g r w 0 0 8 1 = = = 2 : 1 2 2 2 2 8 1 8 $ % % @ # & # X #   . o     # # # o @ O o # o o % < 1 r x C I l t w 8 : 8 * < 2 g g g f ",
"r 2 2 t r w , % & : : : > 2 2 2 8 2 = ; * : : : : % : : : $ # % % + < + o = @ & o o o o $ > < w x b C a 9 1 8 2 , = 8 e t g k r ",
"2 1 - , , 2 , : - > > > & , 2 , , 0 > , : - 0 2 0 2 r *.G r f r k 2 g 2 = ; = & & * o # % < < , e j j t 9 8 8 q ; * e e e n 2 : ",
": - - - ; , , > 5 w - ; - - ; , , * , 0 8 0 t h J I Q ;.(  .2.[ P d t G 8 & $ % ; & & O - 1 > : , e z j f 9 8 q * & ; 8 8 8 1 * ",
"> & ; ; w l y l c n 5 ; ; & w l h a b (  .I  ._ &.-.) R ) 5.a.1.K e w n h 0 % # = - ; > > 2 2 , 9 e j a 8 9 r : = & 5 9 9 * * > ",
"s 5 w w l l l s l Z a 5 - ; y P ' U ~ ~ [ P R } <.2.W B ) 2.w.( [ K s b h t : > & = 2 y b J c h N e e 5 * 4 4 0 * o 8 V c V V b ",
") / S n P n P c Z L x e 3 5 c R W T { } E U C Y ..[ W =.9.2.P } R a j H v g % : O O ; a s P C B C s e 8 * * 9 2 > & 8 s [ [ O...",
"..<...^ ^ P C L n C a e C P P R ] | ' ] U W B z P Y ..=.P C s d N j C H j g 1 : $ ; ; a d E Y R P J h h f F f r q q e V -...[ K ",
"@.,.>.X.=.) x h y e 5 9 J c P W W @.D W ..;.B B i c Y N e a 6 9 d 9 s V K J t 2 , > , h S P ^ ^ W X...! ! F q r q 0 q H ..] X.{ ",
"@.| ^ X.;._ v r 0 : : , y e b W ^ +.S E ....Z w 3 C c w e a 5 > 0 j b I G F f 2 1 2 , l / R U ^ ~ <.} } ^ ) x r t w w Z E Y D | ",
"^ ] +.X.[ ) x 2 < > > 2 c c C +...E P Z / I c 6 5 c s 5 > > e e q v J Q v t 2 2 2 2 , 6 B C Y ^ Z ( ^ E Z I x r t 5 w ^ P +.} T ",
"W [ } X.e.*.b % $ : 1 2 c c R ^ ^ Z V b / P x t 5 6 5 ; > 5 s h 8 q b ..G w 2 r w > - > e l S S Z ^ P R n L x y t , u >.;.W Z S ",
"A W D W ( I g : % < > , c s N Y ! P j h L c e - - & - , 5 5 y h 9 8 b Z c r < > > - - , e l ^ ( B E R P x L x s y 5 e w.>.] e.o.",
"M ` O.[ ~ L r $ @ & & 3 y s Z W Q R q a H s q * & O = ; ; 9 x a t 8 j V y r 1 , : > : ; e y ^ } ) ..} ..n / x h s 9 s e.q.O.s.:.",
"A A ....R j 0 $ O o @ - e d I U F F e s f 8 1 $ - ; : ; a e y s t q g j e y 1 1 : > ; , l x ^ ^ _ +.>.$.+.Y J c s 6 s 0.i.X.i.3.",
"` M { } P b e . X @ & 5 s h h h q f q f q q = $ : * 2 r a a y t q q 8 8 e , : , > > , y x l z S X.4.-.4.0.D C s y e u <.@.[ p.8.",
"[ U D Z j h > . X O - ; h y y r r r 2 0 : q 1 * 2 0 0 w a 6 e w 4 9 5 8 2 , % , > : : - ; 2 6 6 S ..Y ..;.B c l a 5 s Z A U 2.#.",
"X.T K V 9 3 = X o X & 3 a y y t t r 1 * * * * = > 8 8 0 w w w , 4 4 q q q > : 0 , : - ; , 5 5 , i [ ;.>.<.P c s 5 ; 7 7 ^ 0.7.+.",
"W U W ] i 3 & # X & & e 5 3 5 8 9 0 = O & = O * * * & ; y t y e h t b t 9 $ : 8 2 , 2 , 2 e c C c Y >.*...Z c s 3 3 m Z O.f.p.9.",
"[ U T Y N B % . & & & a e e 9 8 e 0 8 5 , 9 * * 8 5 8 s V R X.) b h b j f : : 0 w 5 , , 5 6 y c E ( W W ( E C c 3 3 B | ] @.t.f.",
"8.' ] [ ( j : + X & 8 P :.@.E P J b a d 9 5 q t j b I X.;.Y +.+.P j h f f 1 : 0 r , ; ; , ; 5 6 c ] =.B ^ ( P l 7 a B p l D | @.",
"q.2.Z  .Q g % + + 0 ) 6.} | U U ' &.X.C Z c 9 a h j ..9.$.D $.4.R j h h s 8 * 0 w , - & 3 > > e y R >.Y ( ( T N c T 7 7 7 o.#.7.",
"W B j j f F < + < g y.1.2.;.} ` ;.2.;.C j V 5 8 a  .2.7.4.| +.S  .P h b g 8 r 0 , > - ; 5 5 4 t a V | Z ;.[ Z Z S W T p A { t.3.",
"B d J t 2 k <   + r 6.2.1.X.o.` X.2.O.Q J j t q 5 / | $.@.O.} W >.R y v r : f r 8 , = & 8 s e 5 6 s K W ;.R Y U } Y U ' ' #.o.] ",
"{ ] V f 0 g % + + k 3.#.[ :.T } [ 2.;.R j j 9 , > l 0.q.O.$.^ N K 5 ; j 0 1 v g r 2 * ; a j e ; e d W ;.2.E +.[ U W [ 9.3.#.O.D "
};